<svg width="19" height="27" viewBox="0 0 19 27" fill="none" xmlns="http://www.w3.org/2000/svg">
<path d="M1.78125 27C1.28646 27 0.865885 26.8125 0.519531 26.4375C0.173177 26.0625 0 25.6071 0 25.0714V11.1214C0 10.5857 0.173177 10.1304 0.519531 9.75536C0.865885 9.38036 1.28646 9.19286 1.78125 9.19286H3.85938V6.10714C3.85938 4.41429 4.40859 2.97321 5.50703 1.78393C6.60547 0.594643 7.93646 0 9.5 0C11.0635 0 12.3945 0.594643 13.493 1.78393C14.5914 2.97321 15.1406 4.41429 15.1406 6.10714V9.19286H17.2188C17.7135 9.19286 18.1341 9.38036 18.4805 9.75536C18.8268 10.1304 19 10.5857 19 11.1214V25.0714C19 25.6071 18.8268 26.0625 18.4805 26.4375C18.1341 26.8125 17.7135 27 17.2188 27H1.78125ZM1.78125 25.0714H17.2188V11.1214H1.78125V25.0714ZM9.5 20.5714C10.1333 20.5714 10.6727 20.3357 11.118 19.8643C11.5633 19.3929 11.7859 18.825 11.7859 18.1607C11.7859 17.5179 11.5633 16.9339 11.118 16.4089C10.6727 15.8839 10.1333 15.6214 9.5 15.6214C8.86667 15.6214 8.32734 15.8839 7.88203 16.4089C7.43672 16.9339 7.21406 17.5179 7.21406 18.1607C7.21406 18.825 7.43672 19.3929 7.88203 19.8643C8.32734 20.3357 8.86667 20.5714 9.5 20.5714ZM5.64062 9.19286H13.3594V6.10714C13.3594 4.95 12.9833 3.96429 12.2313 3.15C11.4792 2.33571 10.5687 1.92857 9.5 1.92857C8.43125 1.92857 7.52083 2.33571 6.76875 3.15C6.01667 3.96429 5.64062 4.95 5.64062 6.10714V9.19286ZM1.78125 25.0714V11.1214V25.0714Z" fill="#8B8B8B"/>
</svg>
