<svg width="500" height="500" viewBox="0 0 500 500" fill="none" xmlns="http://www.w3.org/2000/svg">
<path d="M250 468.74C323.172 468.74 382.49 459.508 382.49 448.12C382.49 436.732 323.172 427.5 250 427.5C176.828 427.5 117.51 436.732 117.51 448.12C117.51 459.508 176.828 468.74 250 468.74Z" fill="#EBEBEB"/>
<path d="M102.44 347.36C102.778 338.87 102.662 330.368 102.09 321.89C100.832 304.405 98.1564 287.052 94.09 270C91.87 260.4 89.09 251 86.27 241.53C86.19 241.24 85.73 241.32 85.81 241.62C94.64 274.86 101.88 309.17 101.38 343.73C101.25 353.4 100.13 362.9 99.21 372.51C99.21 372.76 99.61 372.87 99.66 372.6C101.51 364.38 102.1 355.76 102.44 347.36Z" fill="#2D2D2D"/>
<path d="M85.83 241.62C85.83 241.62 72.46 275.57 75.45 283.55C78.44 291.53 84.62 293.23 84.62 293.23C84.62 293.23 76.44 304.91 82.15 315.87C87.86 326.83 100.58 326.31 101.42 338.73C101.42 338.73 102.13 286.78 85.83 241.62Z" fill="#2D2D2D"/>
<path d="M100 317.28C100.02 317.222 100.02 317.158 100 317.1C98.2369 293.922 93.8762 271.015 87 248.81C87 248.75 86.87 248.81 86.89 248.81C89.5567 258.737 91.89 268.737 93.89 278.81C92.0981 277.104 89.9032 275.879 87.51 275.25C87.51 275.25 87.44 275.25 87.51 275.32C90.0226 276.247 92.2806 277.755 94.1 279.72C94.4867 281.72 94.8633 283.69 95.23 285.63C92.23 282.29 88.1 280.63 83.95 279.06C83.89 279.06 83.86 279.12 83.95 279.15C88.27 280.9 92.57 283.15 95.5 286.89C96.52 292.53 97.4167 298.197 98.19 303.89C96.0215 301.625 93.2426 300.037 90.19 299.32C90.1 299.32 90.05 299.43 90.19 299.46C93.3286 300.373 96.1374 302.171 98.28 304.64C98.55 306.64 98.8 308.64 99.03 310.64C97.3558 309.229 95.4692 308.092 93.44 307.27C93.44 307.27 93.36 307.33 93.44 307.36C95.492 308.239 97.3739 309.471 99 311H99.07C99.3 312.9 99.52 314.8 99.71 316.71C96.6982 313.07 92.7897 310.279 88.37 308.61C88.28 308.61 88.24 308.71 88.37 308.75C92.7375 310.67 96.5739 313.621 99.55 317.35C99.5812 317.393 99.625 317.424 99.6754 317.441C99.7257 317.457 99.7798 317.457 99.83 317.44C100.12 320.36 100.38 323.28 100.59 326.21C100.59 326.21 100.66 326.26 100.66 326.21C100.447 323.257 100.227 320.28 100 317.28Z" fill="#263238"/>
<path d="M89.22 271.86C86.8115 270.354 84.0573 269.49 81.22 269.35C81.15 269.35 81.15 269.44 81.22 269.45C83.9701 269.961 86.6402 270.835 89.16 272.05C89.1807 272.047 89.2002 272.039 89.2163 272.025C89.2323 272.012 89.2441 271.994 89.2504 271.974C89.2567 271.954 89.2572 271.933 89.2518 271.913C89.2464 271.892 89.2354 271.874 89.22 271.86Z" fill="#263238"/>
<path d="M90.85 307.8C88.9996 306.735 86.9633 306.033 84.85 305.73C84.78 305.73 84.77 305.83 84.85 305.85C86.9397 306.256 88.9603 306.96 90.85 307.94C90.86 308 90.92 307.84 90.85 307.8Z" fill="#263238"/>
<path d="M137.6 284.1C131.944 288.009 126.75 292.548 122.12 297.63C117.347 302.994 113.659 309.233 111.26 316C106.184 330.128 103.455 344.991 103.18 360C103.006 368.318 103.805 376.628 105.56 384.76C105.572 384.821 105.608 384.875 105.659 384.909C105.711 384.944 105.774 384.957 105.835 384.945C105.896 384.933 105.95 384.897 105.984 384.846C106.019 384.794 106.032 384.731 106.02 384.67C103.838 370.319 103.922 355.715 106.27 341.39C108.57 327.34 112.17 312.06 121.1 300.65C126 294.52 132 289.63 138 284.57C138.33 284.31 137.92 283.87 137.6 284.1Z" fill="#2D2D2D"/>
<path d="M105.14 350C108.364 344.794 112.15 339.959 116.43 335.58C123.12 328.89 128.75 324.14 129.62 319.71C130.49 315.28 122.92 312.03 122.92 312.03C122.92 312.03 132.18 313.69 134.71 309.81C137.24 305.93 138.47 283.42 138.47 283.42C138.47 283.42 121.63 295.42 113.78 312.3C105.93 329.18 105.14 350 105.14 350Z" fill="#2D2D2D"/>
<path d="M132.45 304.49C131.341 304.33 130.218 304.29 129.1 304.37C129.068 304.37 129.038 304.383 129.015 304.405C128.993 304.428 128.98 304.458 128.98 304.49C128.98 304.522 128.993 304.552 129.015 304.575C129.038 304.597 129.068 304.61 129.1 304.61C130.21 304.61 131.31 304.56 132.42 304.61C132.429 304.618 132.44 304.624 132.452 304.626C132.463 304.629 132.476 304.628 132.487 304.625C132.499 304.621 132.509 304.615 132.518 304.606C132.526 304.597 132.532 304.587 132.535 304.575C132.538 304.563 132.537 304.551 132.534 304.539C132.531 304.528 132.525 304.517 132.516 304.509C132.508 304.5 132.497 304.494 132.486 304.491C132.474 304.487 132.462 304.487 132.45 304.49V304.49Z" fill="#263238"/>
<path d="M120.33 326.32C118.555 326.346 116.798 326.685 115.14 327.32C115.14 327.32 115.14 327.41 115.14 327.4C116.86 326.99 118.59 326.82 120.32 326.54C120.49 326.55 120.48 326.32 120.33 326.32Z" fill="#263238"/>
<path d="M116.7 318.78C115.958 318.772 115.218 318.839 114.49 318.98C114.477 318.985 114.466 318.994 114.458 319.006C114.45 319.017 114.446 319.031 114.446 319.045C114.446 319.059 114.45 319.073 114.458 319.084C114.466 319.096 114.477 319.105 114.49 319.11C115.228 319.148 115.969 319.112 116.7 319C116.83 319 116.83 318.78 116.7 318.78Z" fill="#263238"/>
<path d="M55.77 308C61.2485 309.861 66.4986 312.337 71.42 315.38C76.5172 318.626 80.9329 322.834 84.42 327.77C91.8006 338.036 97.4519 349.44 101.15 361.53C103.227 368.214 104.519 375.117 105 382.1C104.99 382.144 104.965 382.184 104.93 382.212C104.894 382.24 104.85 382.256 104.805 382.256C104.76 382.256 104.716 382.24 104.68 382.212C104.645 382.184 104.62 382.144 104.61 382.1C103.06 369.972 99.6179 358.162 94.41 347.1C89.28 336.33 82.83 324.8 73 317.63C67.63 313.72 61.59 311.17 55.57 308.46C55.23 308.32 55.45 307.87 55.77 308Z" fill="#2D2D2D"/>
<path d="M97.26 353.78C93.4469 350.313 89.2652 347.275 84.79 344.72C77.79 340.85 72.17 338.31 70.44 334.93C68.71 331.55 74.09 327.16 74.09 327.16C74.09 327.16 66.98 330.65 64.09 328.09C61.2 325.53 54.9 307.6 54.9 307.6C54.9 307.6 71.31 313.44 81.56 325.27C91.81 337.1 97.26 353.78 97.26 353.78Z" fill="#2D2D2D"/>
<path d="M69.32 318.53C68.5842 318.473 67.844 318.517 67.12 318.66C67.03 318.66 67.06 318.8 67.12 318.79C67.84 318.71 68.55 318.74 69.27 318.72C69.2932 318.722 69.3163 318.715 69.3352 318.702C69.3541 318.688 69.3677 318.668 69.3736 318.646C69.3795 318.623 69.3774 318.599 69.3676 318.578C69.3579 318.557 69.341 318.54 69.32 318.53V318.53Z" fill="#263238"/>
<path d="M118.42 404.73H81.38L86.66 366.04L88.01 356.12H111.79L113.14 366.04L118.42 404.73Z" fill="#455A64"/>
<path d="M113.14 366.04H86.66L88.01 356.12H111.79L113.14 366.04Z" fill="#263238"/>
<path d="M115.19 352.68H84.61V361.08H115.19V352.68Z" fill="#455A64"/>
<path d="M38.62 404.81L91.46 404.57L144.31 404.48L250 404.31L355.69 404.48L408.54 404.57L461.38 404.81L408.54 405.06L355.69 405.14L250 405.31L144.31 405.14L91.46 405.06L38.62 404.81Z" fill="#263238"/>
<path d="M332 79H168C165.801 79.0196 163.627 79.4724 161.603 80.3324C159.579 81.1925 157.744 82.443 156.203 84.0124C154.663 85.5819 153.446 87.4396 152.624 89.4793C151.801 91.519 151.389 93.7008 151.41 95.9V433.45C151.373 437.889 153.099 442.161 156.21 445.328C159.32 448.495 163.561 450.298 168 450.34H332C336.44 450.298 340.682 448.495 343.794 445.329C346.906 442.162 348.635 437.89 348.6 433.45V95.94C348.625 93.737 348.215 91.5507 347.394 89.5063C346.573 87.4619 345.357 85.5995 343.815 84.026C342.273 82.4524 340.435 81.1985 338.408 80.336C336.381 79.4736 334.203 79.0196 332 79ZM338.23 423C338.23 431.88 331.58 439.07 323.37 439.07H176.67C168.44 439.07 161.79 431.88 161.79 423V108.73C161.79 90.63 168.44 89.73 176.67 89.73H206C207.71 89.73 209.11 91.67 209.11 94.07V95.07C209.11 100.71 212.19 100.72 215.98 100.72H283.98C287.8 100.72 290.85 100.72 290.85 95.07V94.07C290.85 91.67 292.23 89.73 293.97 89.73H323.35C331.56 89.73 338.21 92.13 338.21 108.73L338.23 423Z" fill="#263238"/>
<path d="M259.26 93.75H240.73C240.426 93.7474 240.135 93.6254 239.92 93.4103C239.705 93.1952 239.583 92.9042 239.58 92.6V92.6C239.583 92.2967 239.705 92.0068 239.92 91.7933C240.136 91.5798 240.427 91.46 240.73 91.46H259.26C259.411 91.4587 259.56 91.4872 259.699 91.5439C259.839 91.6006 259.966 91.6844 260.073 91.7903C260.18 91.8963 260.264 92.0225 260.322 92.1614C260.38 92.3004 260.41 92.4495 260.41 92.6C260.41 92.905 260.289 93.1975 260.073 93.4132C259.858 93.6288 259.565 93.75 259.26 93.75V93.75Z" fill="white"/>
<path d="M338.2 108.73V423C338.2 431.88 331.55 439.07 323.35 439.07H176.67C168.44 439.07 161.79 431.88 161.79 423V108.73C161.79 90.63 168.44 89.73 176.67 89.73H206C207.71 89.73 209.11 91.67 209.11 94.07V95.07C209.11 100.71 212.19 100.72 215.98 100.72H283.98C287.8 100.72 290.86 100.72 290.86 95.07V94.07C290.86 91.67 292.23 89.73 293.97 89.73H323.36C331.55 89.75 338.2 92.15 338.2 108.73Z" fill="white"/>
<path d="M338.2 108.73V132.18H161.79V108.73C161.79 90.63 168.44 89.73 176.66 89.73H206.05C207.76 89.73 209.15 91.67 209.15 94.07V95.07C209.15 100.71 212.24 100.72 216.02 100.72H284.02C287.84 100.72 290.9 100.72 290.9 95.07V94.07C290.9 91.67 292.28 89.73 294.01 89.73H323.39C331.55 89.75 338.2 92.15 338.2 108.73Z" fill="#2D2D2D"/>
<path d="M179.65 120.73L174.44 115.84L179.65 110.96L180.46 111.82L176.16 115.84L180.46 119.87L179.65 120.73Z" fill="white"/>
<path d="M325.57 113.83C325.57 114.028 325.511 114.221 325.401 114.386C325.292 114.55 325.135 114.678 324.953 114.754C324.77 114.83 324.569 114.849 324.375 114.811C324.181 114.772 324.003 114.677 323.863 114.537C323.723 114.397 323.628 114.219 323.589 114.025C323.551 113.831 323.57 113.63 323.646 113.447C323.722 113.265 323.85 113.108 324.014 112.999C324.179 112.889 324.372 112.83 324.57 112.83C324.835 112.83 325.09 112.935 325.277 113.123C325.465 113.31 325.57 113.565 325.57 113.83Z" fill="white"/>
<path d="M325.57 117.48C325.57 117.678 325.511 117.871 325.401 118.036C325.292 118.2 325.135 118.328 324.953 118.404C324.77 118.48 324.569 118.499 324.375 118.461C324.181 118.422 324.003 118.327 323.863 118.187C323.723 118.047 323.628 117.869 323.589 117.675C323.551 117.481 323.57 117.28 323.646 117.097C323.722 116.915 323.85 116.758 324.014 116.649C324.179 116.539 324.372 116.48 324.57 116.48C324.835 116.48 325.09 116.585 325.277 116.773C325.465 116.96 325.57 117.215 325.57 117.48Z" fill="white"/>
<path d="M325.57 121.12C325.57 121.318 325.511 121.511 325.401 121.676C325.292 121.84 325.135 121.968 324.953 122.044C324.77 122.12 324.569 122.139 324.375 122.101C324.181 122.062 324.003 121.967 323.863 121.827C323.723 121.687 323.628 121.509 323.589 121.315C323.551 121.121 323.57 120.92 323.646 120.737C323.722 120.555 323.85 120.398 324.014 120.289C324.179 120.179 324.372 120.12 324.57 120.12C324.835 120.12 325.09 120.225 325.277 120.413C325.465 120.6 325.57 120.855 325.57 121.12Z" fill="white"/>
<path d="M201 96.81L200.71 97.09L200.55 97.25C200.192 96.8887 199.766 96.6019 199.297 96.4062C198.827 96.2104 198.324 96.1097 197.815 96.1097C197.306 96.1097 196.803 96.2104 196.333 96.4062C195.864 96.6019 195.438 96.8887 195.08 97.25L194.92 97.09L194.64 96.81L195 96.49C195.253 96.281 195.532 96.1062 195.83 95.97C196.176 95.7919 196.547 95.6672 196.93 95.6C197.11 95.6 197.29 95.6 197.48 95.52H198H198.37C198.712 95.5604 199.047 95.6409 199.37 95.76C199.605 95.8484 199.832 95.9554 200.05 96.08C200.282 96.216 200.502 96.3697 200.71 96.54L201.01 96.81H201Z" fill="white"/>
<path d="M196 98.14L195.55 97.7C195.85 97.3997 196.206 97.1616 196.598 96.9991C196.99 96.8365 197.411 96.7529 197.835 96.7529C198.259 96.7529 198.68 96.8365 199.072 96.9991C199.464 97.1616 199.82 97.3997 200.12 97.7L199.67 98.15C199.183 97.6645 198.523 97.3919 197.835 97.3919C197.147 97.3919 196.487 97.6645 196 98.15V98.14Z" fill="white"/>
<path d="M199.18 98.59L198.74 99.04C198.489 98.7902 198.149 98.65 197.795 98.65C197.441 98.65 197.101 98.7902 196.85 99.04L196.41 98.59C196.782 98.2325 197.279 98.0328 197.795 98.0328C198.311 98.0328 198.808 98.2325 199.18 98.59V98.59Z" fill="white"/>
<path d="M198.2 99.44C198.202 99.5219 198.179 99.6025 198.135 99.6715C198.091 99.7404 198.027 99.7945 197.952 99.8267C197.876 99.859 197.793 99.868 197.713 99.8525C197.632 99.837 197.558 99.7977 197.5 99.7398C197.442 99.6818 197.403 99.6079 197.388 99.5274C197.372 99.447 197.381 99.3637 197.413 99.2884C197.446 99.2131 197.5 99.1492 197.569 99.1049C197.637 99.0606 197.718 99.038 197.8 99.04C197.853 99.04 197.905 99.0503 197.953 99.0704C198.002 99.0905 198.046 99.12 198.083 99.1571C198.12 99.1943 198.149 99.2384 198.17 99.2869C198.19 99.3354 198.2 99.3875 198.2 99.44V99.44Z" fill="white"/>
<path d="M173.29 97.66C173.29 97.4286 173.359 97.2024 173.487 97.01C173.616 96.8176 173.798 96.6676 174.012 96.5791C174.226 96.4905 174.461 96.4673 174.688 96.5125C174.915 96.5576 175.124 96.669 175.287 96.8327C175.451 96.9963 175.562 97.2048 175.608 97.4317C175.653 97.6587 175.63 97.8939 175.541 98.1077C175.452 98.3215 175.302 98.5042 175.11 98.6328C174.918 98.7614 174.691 98.83 174.46 98.83C174.15 98.83 173.852 98.7067 173.633 98.4873C173.413 98.2679 173.29 97.9703 173.29 97.66V97.66Z" fill="white"/>
<path d="M177 97.66C177 97.4286 177.069 97.2024 177.197 97.01C177.326 96.8176 177.508 96.6676 177.722 96.5791C177.936 96.4905 178.171 96.4673 178.398 96.5125C178.625 96.5576 178.834 96.669 178.997 96.8327C179.161 96.9963 179.272 97.2048 179.318 97.4317C179.363 97.6587 179.34 97.8939 179.251 98.1077C179.162 98.3215 179.012 98.5042 178.82 98.6328C178.628 98.7614 178.401 98.83 178.17 98.83C178.016 98.8313 177.863 98.802 177.721 98.7436C177.578 98.6853 177.449 98.5992 177.34 98.4903C177.231 98.3814 177.145 98.2519 177.086 98.1093C177.028 97.9668 176.999 97.814 177 97.66V97.66Z" fill="white"/>
<path d="M180.66 97.66C180.66 97.4286 180.729 97.2024 180.857 97.01C180.986 96.8176 181.168 96.6676 181.382 96.5791C181.596 96.4905 181.831 96.4673 182.058 96.5125C182.285 96.5576 182.494 96.669 182.657 96.8327C182.821 96.9963 182.932 97.2048 182.978 97.4317C183.023 97.6587 183 97.8939 182.911 98.1077C182.822 98.3215 182.672 98.5042 182.48 98.6328C182.288 98.7614 182.061 98.83 181.83 98.83C181.676 98.8313 181.523 98.802 181.381 98.7436C181.238 98.6853 181.109 98.5992 181 98.4903C180.891 98.3814 180.805 98.2519 180.746 98.1093C180.688 97.9668 180.659 97.814 180.66 97.66Z" fill="white"/>
<path d="M184.34 97.66C184.34 97.4286 184.409 97.2024 184.537 97.01C184.666 96.8176 184.848 96.6676 185.062 96.5791C185.276 96.4905 185.511 96.4673 185.738 96.5125C185.965 96.5576 186.174 96.669 186.337 96.8327C186.501 96.9963 186.612 97.2048 186.658 97.4317C186.703 97.6587 186.68 97.8939 186.591 98.1077C186.502 98.3215 186.352 98.5042 186.16 98.6328C185.968 98.7614 185.741 98.83 185.51 98.83C185.356 98.8313 185.203 98.802 185.061 98.7436C184.918 98.6853 184.789 98.5992 184.68 98.4903C184.571 98.3814 184.485 98.2519 184.426 98.1093C184.368 97.9668 184.339 97.814 184.34 97.66Z" fill="white"/>
<path d="M188 97.66C188 97.4286 188.069 97.2024 188.197 97.01C188.326 96.8176 188.508 96.6676 188.722 96.5791C188.936 96.4905 189.171 96.4673 189.398 96.5125C189.625 96.5576 189.834 96.669 189.997 96.8327C190.161 96.9963 190.272 97.2048 190.318 97.4317C190.363 97.6587 190.34 97.8939 190.251 98.1077C190.162 98.3215 190.012 98.5042 189.82 98.6328C189.628 98.7614 189.401 98.83 189.17 98.83C188.86 98.83 188.562 98.7067 188.343 98.4873C188.123 98.2679 188 97.9703 188 97.66V97.66Z" fill="white"/>
<path d="M325 100.22H315.46V95.8H325V100.22ZM316 99.72H324.54V96.3H316V99.72Z" fill="white"/>
<path d="M322.38 96.56H316.24V99.47H322.38V96.56Z" fill="white"/>
<path d="M325.82 96.83H324.97V99.19H325.82V96.83Z" fill="white"/>
<path d="M188.6 419.87H187.25V426.03H184.75V422.89H180.31V426.03H177.8V419.87H176.46L182.53 413.6L188.6 419.87Z" fill="#EBEBEB"/>
<path d="M323.54 413.6H308.92V415.69H323.54V413.6Z" fill="#EBEBEB"/>
<path d="M323.54 418.77H308.92V420.86H323.54V418.77Z" fill="#EBEBEB"/>
<path d="M323.54 423.94H308.92V426.03H323.54V423.94Z" fill="#EBEBEB"/>
<path d="M254.16 418.98L250 423.42L245.84 418.98L246.58 418.3L250 421.95L253.42 418.3L254.16 418.98Z" fill="#EBEBEB"/>
<path d="M250 428C248.504 428.002 247.042 427.56 245.797 426.731C244.553 425.901 243.582 424.721 243.008 423.34C242.435 421.959 242.283 420.438 242.574 418.971C242.865 417.504 243.584 416.156 244.641 415.098C245.698 414.04 247.045 413.319 248.511 413.026C249.978 412.733 251.499 412.883 252.881 413.455C254.263 414.026 255.444 414.995 256.275 416.239C257.106 417.482 257.55 418.944 257.55 420.44C257.55 422.443 256.755 424.365 255.339 425.782C253.924 427.2 252.003 427.997 250 428V428ZM250 413.89C248.702 413.888 247.432 414.271 246.352 414.991C245.271 415.711 244.429 416.736 243.931 417.935C243.434 419.134 243.303 420.454 243.556 421.727C243.808 423.001 244.433 424.171 245.351 425.089C246.269 426.007 247.439 426.632 248.713 426.884C249.986 427.137 251.306 427.006 252.505 426.509C253.704 426.011 254.729 425.169 255.449 424.088C256.169 423.008 256.552 421.738 256.55 420.44C256.545 418.705 255.853 417.043 254.625 415.818C253.398 414.592 251.735 413.903 250 413.9V413.89Z" fill="#EBEBEB"/>
<path d="M234 117.48C234.024 116.233 234.535 115.046 235.426 114.172C236.316 113.299 237.513 112.81 238.76 112.81C239.843 112.803 240.898 113.155 241.76 113.81C241.892 113.938 241.972 114.111 241.985 114.294C241.998 114.478 241.943 114.66 241.831 114.806C241.719 114.951 241.556 115.051 241.376 115.085C241.195 115.119 241.008 115.085 240.85 114.99C240.258 114.515 239.518 114.264 238.76 114.28C237.894 114.285 237.061 114.617 236.43 115.21C236.13 115.505 235.892 115.857 235.729 116.245C235.566 116.633 235.481 117.049 235.48 117.47C235.479 117.891 235.562 118.308 235.725 118.697C235.889 119.085 236.128 119.436 236.43 119.73C237.061 120.323 237.894 120.655 238.76 120.66C239.517 120.669 240.255 120.418 240.85 119.95C241.007 119.853 241.193 119.814 241.375 119.839C241.558 119.865 241.726 119.954 241.85 120.09C241.952 120.244 241.995 120.431 241.971 120.614C241.948 120.798 241.858 120.967 241.72 121.09C240.858 121.745 239.803 122.097 238.72 122.09C237.489 122.083 236.309 121.598 235.429 120.738C234.549 119.878 234.036 118.71 234 117.48V117.48Z" fill="white"/>
<path d="M244.43 121.43V113.78C244.429 113.686 244.446 113.593 244.481 113.507C244.517 113.42 244.569 113.341 244.635 113.275C244.701 113.209 244.78 113.156 244.867 113.121C244.953 113.086 245.046 113.069 245.14 113.07C245.235 113.069 245.328 113.086 245.416 113.121C245.504 113.156 245.584 113.208 245.652 113.274C245.72 113.34 245.774 113.418 245.811 113.505C245.849 113.592 245.869 113.685 245.87 113.78V116.89H249.23V113.78C249.229 113.686 249.246 113.593 249.281 113.507C249.317 113.42 249.369 113.341 249.435 113.275C249.501 113.209 249.58 113.156 249.667 113.121C249.753 113.086 249.846 113.069 249.94 113.07C250.035 113.069 250.128 113.086 250.216 113.121C250.304 113.156 250.384 113.208 250.452 113.274C250.52 113.34 250.574 113.418 250.611 113.505C250.649 113.592 250.669 113.685 250.67 113.78V121.43C250.67 121.525 250.651 121.62 250.614 121.708C250.577 121.796 250.524 121.876 250.456 121.943C250.388 122.01 250.307 122.062 250.219 122.098C250.13 122.134 250.035 122.151 249.94 122.15C249.846 122.151 249.752 122.134 249.664 122.098C249.577 122.062 249.498 122.009 249.431 121.942C249.365 121.874 249.313 121.794 249.278 121.706C249.244 121.618 249.227 121.524 249.23 121.43V118.32H245.87V121.43C245.87 121.525 245.851 121.62 245.814 121.708C245.777 121.796 245.724 121.876 245.656 121.943C245.588 122.01 245.507 122.062 245.419 122.098C245.33 122.134 245.235 122.151 245.14 122.15C245.046 122.151 244.952 122.134 244.864 122.098C244.777 122.062 244.698 122.009 244.631 121.942C244.565 121.874 244.513 121.794 244.478 121.706C244.444 121.618 244.427 121.524 244.43 121.43V121.43Z" fill="white"/>
<path d="M257.42 120H254.26L253.63 121.68C253.576 121.816 253.482 121.933 253.361 122.015C253.24 122.097 253.096 122.14 252.95 122.14C252.871 122.155 252.789 122.155 252.71 122.14C252.531 122.072 252.385 121.937 252.304 121.763C252.224 121.589 252.215 121.39 252.28 121.21L255.15 113.57C255.206 113.434 255.3 113.318 255.422 113.236C255.544 113.154 255.688 113.11 255.835 113.11C255.982 113.11 256.126 113.154 256.248 113.236C256.37 113.318 256.464 113.434 256.52 113.57L259.39 121.21C259.455 121.39 259.446 121.589 259.366 121.763C259.285 121.937 259.139 122.072 258.96 122.14C258.877 122.156 258.793 122.156 258.71 122.14C258.566 122.14 258.425 122.097 258.307 122.014C258.189 121.932 258.099 121.815 258.05 121.68L257.42 120ZM256.88 118.57L255.88 115.78L254.83 118.57H256.88Z" fill="white"/>
<path d="M265.42 114.51H263.36V121.43C263.363 121.524 263.346 121.618 263.312 121.706C263.277 121.794 263.225 121.874 263.159 121.942C263.092 122.009 263.013 122.062 262.926 122.098C262.838 122.134 262.745 122.151 262.65 122.15C262.459 122.15 262.276 122.074 262.141 121.939C262.006 121.804 261.93 121.621 261.93 121.43V114.51H259.88C259.785 114.509 259.692 114.489 259.605 114.451C259.518 114.414 259.44 114.36 259.374 114.292C259.308 114.224 259.256 114.144 259.221 114.056C259.186 113.968 259.169 113.875 259.17 113.78C259.169 113.686 259.186 113.593 259.221 113.507C259.257 113.42 259.309 113.341 259.375 113.275C259.441 113.209 259.52 113.156 259.607 113.121C259.694 113.086 259.786 113.069 259.88 113.07H265.42C265.514 113.069 265.608 113.086 265.695 113.121C265.782 113.156 265.862 113.208 265.929 113.274C265.996 113.34 266.049 113.419 266.085 113.506C266.121 113.593 266.14 113.686 266.14 113.78C266.138 113.971 266.061 114.154 265.927 114.29C265.793 114.426 265.611 114.505 265.42 114.51V114.51Z" fill="white"/>
<path d="M445.99 301.52H223.1V376.63H445.99V301.52Z" fill="#2D2D2D"/>
<path d="M240.88 397.91V376.63H258.91L240.88 397.91Z" fill="#2D2D2D"/>
<path d="M421.77 340.73H236.53V342.35H421.77V340.73Z" fill="white"/>
<path d="M406.12 349.47H236.53V351.09H406.12V349.47Z" fill="white"/>
<path d="M410.68 323.26H236.53V324.88H410.68V323.26Z" fill="white"/>
<path d="M430.56 314.52H236.53V316.14H430.56V314.52Z" fill="white"/>
<path d="M412.39 358.21H236.53V359.83H412.39V358.21Z" fill="white"/>
<path d="M397.41 225.32C392.68 244.56 381.22 274.45 371.1 274.32C361.85 274.17 341.24 257.78 332.6 252.41C323.96 247.04 343.34 225.88 348.29 229.3C355.96 234.61 367.45 244.08 369.39 243.46C371.8 242.69 374.88 236.74 388.67 219.2C394.31 212 399.42 217.13 397.41 225.32Z" fill="#F7A9A0"/>
<path d="M339 221.12C334.93 219.68 330.38 217.7 325.85 217.79C321.32 217.88 317.57 223.85 317.57 225.56C317.57 227.27 319.28 237.93 323.81 237.93C328.34 237.93 325.6 229.74 325.81 228.8C326.02 227.86 326.15 226.66 327 226.75C327.85 226.84 342.79 233.92 342.79 233.92L339 221.12Z" fill="#F7A9A0"/>
<path d="M338.71 221.74C338.46 221.74 326.34 216.96 321.81 217.05C317.28 217.14 313.53 223.11 313.53 224.82C313.53 226.53 315.24 237.19 319.76 237.19C324.28 237.19 321.56 229 321.76 228.06C321.96 227.12 322.1 225.92 322.95 226.01C323.8 226.1 338.74 233.18 338.74 233.18L338.71 221.74Z" fill="#F7A9A0"/>
<path d="M321.3 236.62C321.781 235.812 322.039 234.891 322.05 233.95C322.147 232.984 322.093 232.009 321.89 231.06C321.637 230.247 321.453 229.414 321.34 228.57C321.347 227.733 321.563 226.911 321.97 226.18C322.32 225.55 322.97 225.76 323.56 225.96C324.4 226.285 325.221 226.655 326.02 227.07C326.88 227.5 327.74 227.95 328.59 228.39C329.496 228.818 330.374 229.302 331.22 229.84C331.231 229.85 331.238 229.864 331.241 229.879C331.244 229.894 331.241 229.909 331.235 229.922C331.228 229.936 331.217 229.947 331.204 229.954C331.19 229.96 331.175 229.963 331.16 229.96C330.38 229.666 329.616 229.332 328.87 228.96L326.28 227.77C325.47 227.41 324.68 227.01 323.86 226.66C323.58 226.54 323 226.23 322.67 226.31C322.34 226.39 322.16 227.23 322.08 227.51C321.892 228.321 321.948 229.17 322.24 229.95C322.473 230.76 322.627 231.59 322.7 232.43C322.782 233.222 322.718 234.022 322.51 234.79C322.234 235.497 321.875 236.168 321.44 236.79C321.38 236.8 321.24 236.7 321.3 236.62Z" fill="#263238"/>
<path d="M353.06 233.62C353.06 233.62 340.53 222.19 337.92 219.92C332.68 215.37 310.63 206.36 307.56 206.04C304.49 205.72 303.38 212.04 318.34 218.56C326.23 222.01 327.63 226.56 327.48 229.03C327.33 231.5 324.94 236.2 320.73 236.08C316.52 235.96 313.79 229.82 309.92 229.14C306.05 228.46 308.61 235.55 311.34 239.65C314.204 243.609 318.133 246.674 322.67 248.49C326.31 249.86 337.58 254.71 337.58 254.71L353.06 233.62Z" fill="#F7A9A0"/>
<path d="M315.51 233.12C317.09 234.35 318.89 235.94 320.98 236.02C323.07 236.1 324.53 234.7 325.54 232.94C326.638 231.212 327.031 229.129 326.64 227.12C326.154 225.302 325.154 223.664 323.76 222.4C322.05 220.864 320.127 219.584 318.05 218.6C317.96 218.6 318.05 218.42 318.14 218.46C320.07 219.33 326.14 221.8 327.31 227.12C327.692 229.178 327.27 231.304 326.13 233.06C325.2 234.73 323.84 236.35 321.8 236.51C319.31 236.72 317.17 234.69 315.38 233.18C315.3 233.11 315.42 233.06 315.51 233.12Z" fill="#263238"/>
<path d="M353.06 232L334.31 261.11C334.31 261.11 364.06 277.78 372.48 275.11C380.9 272.44 393.61 248.3 398.85 227.11C404.09 205.92 391.09 214.05 386.04 220.59C380.99 227.13 370.04 242.26 369.45 242.06C368.86 241.86 353.06 232 353.06 232Z" fill="#455A64"/>
<path d="M355.28 271.3C362.06 274.06 368.71 276.07 372.18 275.2L372.48 275.12C380.9 272.42 393.61 248.3 398.86 227.12C399.649 224.287 400.052 221.361 400.06 218.42C400.06 218.31 400.06 218.22 400.06 218.11C400.054 217.942 400.037 217.775 400.01 217.61C400.015 217.54 400.015 217.47 400.01 217.4C400.01 217.25 400.01 217.09 399.95 216.95L355.28 271.3Z" fill="#263238"/>
<path d="M344.78 258.27C345.373 257.243 345.973 256.213 346.58 255.18C347.79 253.13 355.05 240.93 357.92 237.18C358 237.08 358.15 237.18 358.1 237.3C356.1 241.56 348.57 253.53 347.31 255.5C346.67 256.5 346.03 257.5 345.38 258.5C344.73 259.5 343.95 260.44 343.29 261.45C343.278 261.471 343.258 261.487 343.235 261.493C343.211 261.5 343.186 261.497 343.165 261.485C343.144 261.473 343.128 261.453 343.122 261.43C343.115 261.406 343.118 261.381 343.13 261.36C343.72 260.4 344.19 259.3 344.78 258.27Z" fill="#263238"/>
<path d="M440.5 301.52H367.15C366.2 300.42 383.64 224.98 391.5 214.94C393.18 212.79 398.66 212.25 403.31 212.88C404.523 213.029 405.721 213.283 406.89 213.64H407.01C407.951 213.927 408.836 214.369 409.63 214.95C422.47 225.42 433.35 260.6 435.79 271.48C438.106 281.362 439.681 291.403 440.5 301.52V301.52Z" fill="#455A64"/>
<path d="M416.19 234.41C412.85 254.02 396.39 290.7 385.66 294.15C373.25 298.15 330.14 284.37 321.66 278.15C318.29 275.69 336.24 253.97 340.43 255.51C357.98 261.97 373.54 265.28 375.8 263.75C379.27 261.39 393.43 241.1 402.64 228.51C414.22 212.72 417.69 225.61 416.19 234.41Z" fill="#F7A9A0"/>
<path d="M322.79 278.76C320.87 278.08 307.67 268.49 303.79 264C299.571 259.342 296.143 254.025 293.64 248.26C289.72 239.13 287.88 232.46 288.82 229.46C289.92 225.99 290.23 225.46 299.36 240.57C304.52 249.13 309.45 250.1 313.72 250.02C324.21 249.83 334.593 252.155 344 256.8C344 256.8 330.17 281.39 322.79 278.76Z" fill="#F7A9A0"/>
<path d="M324 242.61L307.77 249.41C307.272 249.581 306.734 249.6 306.225 249.464C305.715 249.329 305.258 249.046 304.91 248.65L280.57 219.79C280.409 219.643 280.289 219.457 280.22 219.249C280.152 219.042 280.139 218.821 280.181 218.607C280.223 218.393 280.32 218.193 280.461 218.027C280.603 217.862 280.785 217.735 280.99 217.66L297.23 210.86C297.727 210.687 298.265 210.665 298.774 210.799C299.284 210.933 299.742 211.215 300.09 211.61L324.43 240.47C324.591 240.619 324.71 240.807 324.777 241.015C324.845 241.224 324.857 241.446 324.814 241.66C324.771 241.875 324.674 242.075 324.531 242.241C324.388 242.408 324.206 242.535 324 242.61V242.61Z" fill="#455A64"/>
<path d="M298.52 210.32L282.29 217.12C282.084 217.194 281.901 217.32 281.759 217.485C281.616 217.65 281.518 217.85 281.475 218.064C281.432 218.278 281.444 218.5 281.512 218.707C281.579 218.915 281.699 219.102 281.86 219.25L306.2 248.12C306.551 248.512 307.009 248.792 307.517 248.925C308.026 249.058 308.562 249.039 309.06 248.87L325.3 242.07C325.505 241.993 325.687 241.866 325.828 241.699C325.97 241.532 326.066 241.332 326.108 241.117C326.15 240.903 326.137 240.681 326.069 240.473C326.001 240.265 325.881 240.078 325.72 239.93L301.38 211.07C301.032 210.675 300.574 210.393 300.064 210.259C299.555 210.125 299.017 210.147 298.52 210.32V210.32ZM323.94 239.47C324.097 239.6 324.217 239.769 324.289 239.96C324.361 240.15 324.383 240.356 324.351 240.558C324.32 240.759 324.237 240.949 324.111 241.109C323.984 241.269 323.819 241.393 323.63 241.47L309.11 247.56C308.646 247.708 308.148 247.715 307.68 247.58C307.211 247.444 306.794 247.173 306.48 246.8L283.81 219.93C282.51 218.38 283.1 218.03 283.92 217.69L286.83 216.47C286.945 216.449 287.064 216.461 287.174 216.503C287.283 216.545 287.379 216.617 287.45 216.71L287.52 216.8C287.93 217.28 288.23 217.16 288.61 217L295.34 214.18C295.72 214.02 296.02 213.89 295.61 213.41L295.54 213.32C295.36 213.11 295.36 212.89 295.54 212.82L298.45 211.6C299.26 211.26 300.09 211.19 301.29 212.6L323.94 239.47Z" fill="#263238"/>
<path d="M292.38 214.59L290.55 215.36C290.515 215.372 290.478 215.373 290.443 215.364C290.407 215.356 290.375 215.337 290.35 215.31V215.31C290.339 215.301 290.331 215.289 290.325 215.276C290.319 215.263 290.316 215.249 290.316 215.235C290.316 215.221 290.319 215.207 290.325 215.194C290.331 215.181 290.339 215.169 290.35 215.16L292.19 214.4C292.218 214.38 292.251 214.369 292.285 214.369C292.319 214.369 292.352 214.38 292.38 214.4V214.4C292.405 214.4 292.429 214.41 292.447 214.428C292.465 214.446 292.475 214.47 292.475 214.495C292.475 214.52 292.465 214.544 292.447 214.562C292.429 214.58 292.405 214.59 292.38 214.59V214.59Z" fill="white"/>
<path d="M301.28 212.6L323.94 239.47C324.097 239.6 324.217 239.769 324.289 239.96C324.361 240.15 324.383 240.356 324.351 240.558C324.32 240.759 324.237 240.949 324.111 241.109C323.984 241.269 323.819 241.393 323.63 241.47L309.11 247.56C308.646 247.708 308.148 247.715 307.68 247.58C307.211 247.444 306.794 247.173 306.48 246.8L283.81 219.93C282.51 218.38 283.1 218.03 283.92 217.69L286.83 216.47C286.945 216.448 287.065 216.459 287.174 216.502C287.284 216.544 287.379 216.616 287.45 216.71L287.52 216.8C287.93 217.28 288.23 217.16 288.61 217L295.34 214.18C295.72 214.02 296.02 213.89 295.61 213.41L295.54 213.32C295.36 213.11 295.36 212.89 295.54 212.82L298.45 211.6C299.25 211.25 300.08 211.18 301.28 212.6Z" fill="white"/>
<path d="M301.28 212.6L302.97 214.6L285.5 221.92L283.81 219.92C282.51 218.37 283.1 218.02 283.92 217.68L286.83 216.46C286.945 216.436 287.066 216.446 287.176 216.488C287.286 216.531 287.381 216.604 287.45 216.7L287.52 216.79C287.93 217.27 288.24 217.14 288.61 216.99L295.34 214.17C295.72 214.01 296.02 213.88 295.61 213.4L295.54 213.31C295.36 213.1 295.36 212.88 295.54 212.81L298.45 211.59C299.25 211.25 300.08 211.18 301.28 212.6Z" fill="#2D2D2D"/>
<path d="M286.45 220.2L285.58 220L285.74 219.37L285.88 219.41L285.75 219.93L286.46 220.1L286.45 220.2Z" fill="white"/>
<path d="M300.4 213.56C300.41 213.567 300.419 213.577 300.425 213.588C300.43 213.6 300.433 213.612 300.433 213.625C300.433 213.638 300.43 213.65 300.425 213.662C300.419 213.673 300.41 213.683 300.4 213.69C300.368 213.7 300.335 213.701 300.303 213.692C300.271 213.683 300.242 213.665 300.22 213.64C300.21 213.633 300.201 213.623 300.195 213.612C300.19 213.6 300.187 213.588 300.187 213.575C300.187 213.562 300.19 213.55 300.195 213.538C300.201 213.527 300.21 213.517 300.22 213.51C300.252 213.5 300.285 213.499 300.317 213.508C300.349 213.517 300.378 213.535 300.4 213.56V213.56Z" fill="white"/>
<path d="M300.66 213.87C300.67 213.877 300.679 213.887 300.685 213.898C300.69 213.91 300.693 213.922 300.693 213.935C300.693 213.948 300.69 213.96 300.685 213.972C300.679 213.983 300.67 213.993 300.66 214C300.63 214.009 300.598 214.01 300.567 214.001C300.537 213.992 300.51 213.974 300.49 213.95C300.48 213.943 300.471 213.933 300.465 213.922C300.46 213.91 300.457 213.898 300.457 213.885C300.457 213.872 300.46 213.86 300.465 213.848C300.471 213.837 300.48 213.827 300.49 213.82C300.52 213.812 300.552 213.812 300.582 213.821C300.612 213.83 300.639 213.847 300.66 213.87Z" fill="white"/>
<path d="M300.92 214.18C300.93 214.187 300.939 214.197 300.945 214.208C300.95 214.22 300.953 214.232 300.953 214.245C300.953 214.258 300.95 214.27 300.945 214.282C300.939 214.293 300.93 214.303 300.92 214.31C300.892 214.325 300.861 214.333 300.83 214.333C300.799 214.333 300.768 214.325 300.74 214.31C300.73 214.303 300.721 214.293 300.715 214.282C300.71 214.27 300.707 214.258 300.707 214.245C300.707 214.232 300.71 214.22 300.715 214.208C300.721 214.197 300.73 214.187 300.74 214.18C300.765 214.159 300.797 214.147 300.83 214.147C300.863 214.147 300.895 214.159 300.92 214.18V214.18Z" fill="white"/>
<path d="M286.83 217.27V217.33C286.716 217.295 286.594 217.295 286.48 217.33C286.432 217.348 286.39 217.377 286.357 217.415C286.323 217.454 286.3 217.5 286.29 217.55H286.21V217.47C286.234 217.441 286.261 217.414 286.29 217.39H286.34H286.39H286.51H286.74L286.83 217.27Z" fill="white"/>
<path d="M286.43 217.59H286.36C286.367 217.559 286.38 217.529 286.399 217.503C286.418 217.478 286.442 217.456 286.47 217.44C286.524 217.417 286.582 217.406 286.64 217.406C286.698 217.406 286.756 217.417 286.81 217.44V217.5C286.732 217.475 286.648 217.475 286.57 217.5C286.513 217.511 286.463 217.543 286.43 217.59Z" fill="white"/>
<path d="M286.78 217.5V217.56C286.741 217.545 286.699 217.545 286.66 217.56C286.66 217.56 286.6 217.56 286.6 217.63H286.52C286.528 217.604 286.541 217.58 286.559 217.559C286.576 217.538 286.598 217.521 286.622 217.509C286.646 217.497 286.673 217.49 286.7 217.488C286.727 217.487 286.754 217.491 286.78 217.5Z" fill="white"/>
<path d="M286.75 217.61C286.75 217.61 286.69 217.61 286.68 217.61V217.55C286.696 217.554 286.71 217.561 286.722 217.571C286.735 217.582 286.744 217.595 286.75 217.61V217.61Z" fill="white"/>
<path d="M284.15 218.49C284.137 218.483 284.127 218.473 284.12 218.461C284.113 218.448 284.109 218.434 284.109 218.42C284.109 218.406 284.113 218.392 284.12 218.379C284.127 218.367 284.137 218.357 284.15 218.35C284.184 218.335 284.222 218.332 284.258 218.341C284.295 218.35 284.327 218.371 284.35 218.4C284.362 218.408 284.373 218.419 284.38 218.432C284.387 218.446 284.39 218.46 284.39 218.475C284.39 218.49 284.387 218.504 284.38 218.518C284.373 218.531 284.362 218.542 284.35 218.55C284.314 218.559 284.277 218.559 284.242 218.548C284.206 218.538 284.175 218.517 284.15 218.49V218.49Z" fill="white"/>
<path d="M284.52 218.34C284.508 218.332 284.497 218.321 284.49 218.308C284.483 218.294 284.48 218.28 284.48 218.265C284.48 218.25 284.483 218.236 284.49 218.222C284.497 218.209 284.508 218.198 284.52 218.19C284.555 218.18 284.592 218.18 284.627 218.189C284.662 218.198 284.694 218.215 284.72 218.24C284.732 218.248 284.743 218.259 284.75 218.272C284.757 218.286 284.76 218.3 284.76 218.315C284.76 218.33 284.757 218.344 284.75 218.358C284.743 218.371 284.732 218.382 284.72 218.39C284.686 218.405 284.648 218.408 284.612 218.399C284.575 218.39 284.543 218.369 284.52 218.34V218.34Z" fill="white"/>
<path d="M284.88 218.19C284.868 218.182 284.857 218.171 284.85 218.158C284.843 218.144 284.84 218.13 284.84 218.115C284.84 218.1 284.843 218.086 284.85 218.072C284.857 218.059 284.868 218.048 284.88 218.04C284.914 218.027 284.952 218.025 284.988 218.034C285.024 218.042 285.056 218.062 285.08 218.09C285.13 218.15 285.08 218.21 285.08 218.24C285.045 218.252 285.008 218.253 284.973 218.244C284.937 218.236 284.905 218.217 284.88 218.19V218.19Z" fill="white"/>
<path d="M285.25 218C285.238 217.992 285.227 217.981 285.22 217.968C285.213 217.954 285.21 217.94 285.21 217.925C285.21 217.91 285.213 217.896 285.22 217.882C285.227 217.869 285.238 217.858 285.25 217.85C285.284 217.835 285.322 217.832 285.358 217.841C285.395 217.85 285.427 217.871 285.45 217.9C285.462 217.908 285.473 217.919 285.48 217.932C285.487 217.946 285.49 217.96 285.49 217.975C285.49 217.99 285.487 218.004 285.48 218.018C285.473 218.031 285.462 218.042 285.45 218.05C285.415 218.061 285.378 218.062 285.343 218.053C285.308 218.044 285.276 218.026 285.25 218Z" fill="white"/>
<path d="M285.61 217.88C285.599 217.871 285.591 217.859 285.585 217.846C285.579 217.833 285.576 217.819 285.576 217.805C285.576 217.791 285.579 217.777 285.585 217.764C285.591 217.751 285.599 217.739 285.61 217.73C285.646 217.719 285.683 217.719 285.719 217.73C285.755 217.741 285.786 217.762 285.81 217.79C285.823 217.797 285.833 217.807 285.84 217.819C285.847 217.832 285.851 217.846 285.851 217.86C285.851 217.874 285.847 217.888 285.84 217.901C285.833 217.913 285.823 217.923 285.81 217.93C285.776 217.945 285.738 217.948 285.702 217.939C285.665 217.93 285.633 217.909 285.61 217.88V217.88Z" fill="white"/>
<path d="M298.35 213.08L297.73 212.35L299.1 211.77L299.73 212.51L298.35 213.08Z" fill="white"/>
<path d="M298.83 212.21L298.23 212.47L298.44 212.72L299.05 212.46L298.83 212.21Z" fill="white"/>
<path d="M299.37 212.29L299.28 212.33L299.11 212.13L299.2 212.09L299.37 212.29Z" fill="white"/>
<path d="M308.9 245.41L308.77 245.47L309.21 245.99L308.97 246.1L308.74 245.83L308.3 246.01L308.53 246.28L308.28 246.39L307.83 245.86L307.7 245.91L307.85 245.13L308.9 245.41Z" fill="#EBEBEB"/>
<path d="M321.96 239.45L320.52 240.06L320.37 239.88L321.81 239.28L321.96 239.45Z" fill="#EBEBEB"/>
<path d="M322.34 239.9L320.89 240.5L320.74 240.32L322.19 239.72L322.34 239.9Z" fill="#EBEBEB"/>
<path d="M322.71 240.34L321.26 240.94L321.11 240.77L322.56 240.16L322.71 240.34Z" fill="#EBEBEB"/>
<path d="M315.33 242.62L315.24 243.17L314.51 242.96L314.53 242.87L315.13 243.04L315.21 242.59L315.33 242.62Z" fill="#EBEBEB"/>
<path d="M315.17 244.09C314.939 244.087 314.711 244.036 314.5 243.94C314.29 243.843 314.103 243.704 313.95 243.53C313.823 243.411 313.73 243.262 313.678 243.096C313.627 242.93 313.619 242.754 313.657 242.585C313.694 242.415 313.775 242.258 313.891 242.129C314.007 242.001 314.155 241.904 314.32 241.85C314.628 241.731 314.966 241.71 315.286 241.791C315.607 241.871 315.895 242.049 316.11 242.3C316.231 242.433 316.317 242.594 316.361 242.769C316.404 242.943 316.404 243.126 316.36 243.3C316.32 243.461 316.241 243.611 316.132 243.736C316.022 243.861 315.885 243.958 315.73 244.02C315.549 244.078 315.359 244.102 315.17 244.09V244.09ZM314.87 242.74C314.817 242.73 314.763 242.73 314.71 242.74C314.71 242.74 314.71 242.81 314.71 242.85C314.788 242.935 314.889 242.997 315 243.028C315.111 243.06 315.229 243.061 315.34 243.03C315.39 243.03 315.34 242.96 315.34 242.91C315.212 242.794 315.043 242.733 314.87 242.74Z" fill="#EBEBEB"/>
<path d="M291.6 217.67C291.555 217.627 291.523 217.574 291.505 217.515C291.487 217.456 291.484 217.394 291.497 217.334C291.51 217.273 291.538 217.218 291.579 217.171C291.62 217.125 291.672 217.09 291.73 217.07C291.851 217.035 291.979 217.035 292.1 217.07C292.122 217.074 292.143 217.085 292.159 217.101C292.175 217.117 292.186 217.138 292.19 217.16C292.19 217.16 292.14 217.22 292.09 217.16C292.009 217.135 291.922 217.135 291.84 217.16C291.801 217.174 291.765 217.196 291.736 217.226C291.706 217.255 291.684 217.291 291.67 217.33C291.665 217.373 291.669 217.416 291.681 217.457C291.693 217.498 291.713 217.537 291.74 217.57C291.81 217.644 291.901 217.696 292 217.72C292.098 217.75 292.202 217.75 292.3 217.72C292.334 217.71 292.365 217.692 292.391 217.668C292.418 217.643 292.438 217.613 292.45 217.58C292.467 217.565 292.488 217.557 292.51 217.557C292.532 217.557 292.554 217.565 292.57 217.58C292.589 217.585 292.606 217.597 292.618 217.613C292.629 217.63 292.633 217.65 292.63 217.67C292.608 217.719 292.576 217.762 292.536 217.798C292.497 217.834 292.45 217.862 292.4 217.88C292.261 217.929 292.11 217.935 291.968 217.897C291.825 217.86 291.697 217.781 291.6 217.67Z" fill="white"/>
<path d="M292.91 217.57L292.36 216.92C292.352 216.916 292.344 216.91 292.339 216.902C292.334 216.894 292.332 216.884 292.332 216.875C292.332 216.866 292.334 216.856 292.339 216.848C292.344 216.84 292.352 216.834 292.36 216.83C292.378 216.818 292.399 216.812 292.42 216.812C292.441 216.812 292.462 216.818 292.48 216.83L292.71 217.1L293.04 216.96L292.81 216.69C292.804 216.684 292.799 216.677 292.795 216.67C292.792 216.662 292.79 216.654 292.79 216.645C292.79 216.636 292.792 216.628 292.795 216.62C292.799 216.613 292.804 216.606 292.81 216.6C292.83 216.589 292.852 216.583 292.875 216.583C292.898 216.583 292.92 216.589 292.94 216.6L293.49 217.26C293.498 217.264 293.506 217.27 293.511 217.278C293.516 217.286 293.518 217.296 293.518 217.305C293.518 217.314 293.516 217.324 293.511 217.332C293.506 217.34 293.498 217.346 293.49 217.35C293.471 217.36 293.451 217.365 293.43 217.365C293.409 217.365 293.389 217.36 293.37 217.35L293.14 217.08L292.81 217.22L293.03 217.49C293.038 217.494 293.046 217.5 293.051 217.508C293.056 217.516 293.058 217.526 293.058 217.535C293.058 217.544 293.056 217.554 293.051 217.562C293.046 217.57 293.038 217.576 293.03 217.58C293.011 217.59 292.99 217.595 292.969 217.593C292.947 217.591 292.927 217.583 292.91 217.57V217.57Z" fill="white"/>
<path d="M294.09 216.91L293.78 217.04L293.84 217.22V217.28C293.818 217.281 293.796 217.276 293.777 217.266C293.757 217.255 293.741 217.239 293.73 217.22L293.46 216.44C293.46 216.44 293.46 216.44 293.46 216.38C293.475 216.37 293.492 216.365 293.51 216.365C293.528 216.365 293.545 216.37 293.56 216.38L294.39 216.91C294.39 216.91 294.45 216.98 294.39 217.01C294.375 217.02 294.358 217.025 294.34 217.025C294.322 217.025 294.305 217.02 294.29 217.01L294.09 216.91ZM293.94 216.81L293.63 216.62L293.73 216.9L293.94 216.81Z" fill="white"/>
<path d="M294.49 216.11L294.29 216.2L294.79 216.79C294.798 216.794 294.806 216.8 294.811 216.808C294.816 216.816 294.818 216.826 294.818 216.835C294.818 216.844 294.816 216.854 294.811 216.862C294.806 216.87 294.798 216.876 294.79 216.88C294.77 216.891 294.748 216.897 294.725 216.897C294.702 216.897 294.68 216.891 294.66 216.88L294.17 216.29L293.96 216.37C293.942 216.382 293.921 216.388 293.9 216.388C293.879 216.388 293.858 216.382 293.84 216.37C293.84 216.37 293.84 216.29 293.84 216.28L294.39 216.05C294.408 216.038 294.429 216.032 294.45 216.032C294.471 216.032 294.492 216.038 294.51 216.05C294.514 216.061 294.514 216.073 294.511 216.084C294.507 216.094 294.5 216.104 294.49 216.11V216.11Z" fill="white"/>
<path d="M296.87 232.34L309.37 227.11L306.51 223.72L294.02 228.95L296.87 232.34Z" fill="#455A64"/>
<path d="M310.52 226.62L309.37 227.11L308.49 226.07L310.52 226.62Z" fill="#455A64"/>
<path d="M306.34 224.67L295.28 229.31L295.23 229.24L306.29 224.6L306.34 224.67Z" fill="white"/>
<path d="M304.34 225.98L295.57 229.65L295.52 229.59L304.29 225.91L304.34 225.98Z" fill="white"/>
<path d="M306.31 226.09L296.16 230.35L296.11 230.28L306.26 226.03L306.31 226.09Z" fill="white"/>
<path d="M307.51 226.06L296.45 230.69L296.4 230.63L307.46 226L307.51 226.06Z" fill="white"/>
<path d="M307.81 226.41L296.75 231.04L296.69 230.98L307.75 226.34L307.81 226.41Z" fill="white"/>
<path d="M305.04 228.04L297.04 231.39L296.99 231.33L304.98 227.97L305.04 228.04Z" fill="white"/>
<path d="M303.62 240.34L316.11 235.11L313.26 231.72L300.76 236.96L303.62 240.34Z" fill="#455A64"/>
<path d="M317.27 234.62L316.11 235.11L315.24 234.07L317.27 234.62Z" fill="#455A64"/>
<path d="M313.09 232.67L302.03 237.31L301.97 237.24L313.04 232.6L313.09 232.67Z" fill="white"/>
<path d="M311.09 233.98L302.32 237.65L302.27 237.59L311.03 233.91L311.09 233.98Z" fill="white"/>
<path d="M313.06 234.09L302.91 238.35L302.85 238.28L313 234.03L313.06 234.09Z" fill="white"/>
<path d="M314.26 234.06L303.2 238.69L303.15 238.63L314.21 234L314.26 234.06Z" fill="white"/>
<path d="M314.56 234.41L303.49 239.04L303.44 238.98L314.5 234.34L314.56 234.41Z" fill="white"/>
<path d="M311.78 236.04L303.79 239.39L303.73 239.33L311.73 235.97L311.78 236.04Z" fill="white"/>
<path d="M304.83 219.87L292.34 225.11L289.93 222.25L302.42 217.01L304.83 219.87Z" fill="#2D2D2D"/>
<path d="M291.18 225.59L292.34 225.11L291.46 224.07L291.18 225.59Z" fill="#2D2D2D"/>
<path d="M300.37 218.68L291.16 222.54L291.1 222.47L300.32 218.61L300.37 218.68Z" fill="white"/>
<path d="M302.51 218.25L291.45 222.88L291.4 222.82L302.46 218.18L302.51 218.25Z" fill="white"/>
<path d="M302.81 218.59L291.75 223.23L291.69 223.17L302.75 218.53L302.81 218.59Z" fill="white"/>
<path d="M302.22 219.31L292.04 223.58L291.98 223.51L302.17 219.25L302.22 219.31Z" fill="white"/>
<path d="M303.39 219.29L292.33 223.93L292.28 223.86L303.34 219.23L303.39 219.29Z" fill="white"/>
<path d="M300.8 220.85L292.62 224.27L292.57 224.21L300.74 220.78L300.8 220.85Z" fill="white"/>
<path d="M307.01 222.45L294.52 227.69L292.73 225.57L305.22 220.34L307.01 222.45Z" fill="#2D2D2D"/>
<path d="M293.36 228.18L294.52 227.69L293.64 226.65L293.36 228.18Z" fill="#2D2D2D"/>
<path d="M305 221.23L293.96 225.86L293.9 225.79L304.95 221.16L305 221.23Z" fill="white"/>
<path d="M303.34 222.4L294.25 226.2L294.2 226.14L303.29 222.33L303.34 222.4Z" fill="white"/>
<path d="M304.55 222.36L294.55 226.55L294.49 226.49L304.49 222.3L304.55 222.36Z" fill="white"/>
<path d="M302.55 223.67L294.84 226.9L294.78 226.84L302.5 223.6L302.55 223.67Z" fill="white"/>
<path d="M313.74 230.44L301.25 235.67L298.73 232.69L311.22 227.45L313.74 230.44Z" fill="#DBDBDB"/>
<path d="M300.09 236.16L301.25 235.67L300.37 234.63L300.09 236.16Z" fill="#DBDBDB"/>
<path d="M311.28 229.63L300.83 234L300.78 233.94L311.22 229.56L311.28 229.63Z" fill="white"/>
<path d="M310.72 230.33L301.12 234.35L301.07 234.29L310.67 230.27L310.72 230.33Z" fill="white"/>
<path d="M310.09 229.18L300.24 233.31L300.19 233.25L310.03 229.12L310.09 229.18Z" fill="white"/>
<path d="M310.87 228.38L299.95 232.96L299.9 232.9L310.82 228.32L310.87 228.38Z" fill="white"/>
<path d="M311.35 230.54L301.42 234.7L301.36 234.64L311.3 230.47L311.35 230.54Z" fill="white"/>
<path d="M320.11 237.99L307.62 243.23L305.52 240.74L318.01 235.5L320.11 237.99Z" fill="#2D2D2D"/>
<path d="M306.46 243.71L307.62 243.23L306.74 242.19L306.46 243.71Z" fill="#2D2D2D"/>
<path d="M317.79 236.37L306.73 241L306.68 240.94L317.74 236.3L317.79 236.37Z" fill="white"/>
<path d="M318.09 236.72L307.02 241.35L306.97 241.29L318.03 236.65L318.09 236.72Z" fill="white"/>
<path d="M317.5 237.43L307.32 241.7L307.26 241.63L317.45 237.37L317.5 237.43Z" fill="white"/>
<path d="M318.67 237.41L307.61 242.05L307.56 241.98L318.62 237.35L318.67 237.41Z" fill="white"/>
<path d="M316.08 238.97L307.9 242.39L307.85 242.33L316.02 238.9L316.08 238.97Z" fill="white"/>
<path d="M311.58 250C315.99 250.06 301.65 241.11 301.43 236.09C301.21 231.07 306.11 232.65 309.96 235.49C323.35 245.32 333.46 244.84 340.24 254.25C347.02 263.66 311.58 250 311.58 250Z" fill="#F7A9A0"/>
<path d="M324.91 243.83C327.786 244.551 330.559 245.637 333.16 247.06C335.501 248.516 337.538 250.411 339.16 252.64C339.24 252.73 339.11 252.86 339.03 252.77C335.41 248.32 330.03 246.1 324.92 243.95C324.8 243.92 324.83 243.8 324.91 243.83Z" fill="#263238"/>
<path d="M374.88 262.56C371.45 263.49 347.55 256.93 347.55 256.93L334.12 289.4C334.12 289.4 375.73 299.09 385.45 295.73C395.17 292.37 410.28 259.36 415.17 240.18C419.77 222.18 413.64 210.39 400.77 229.07C400.77 229.07 376.67 262.07 374.88 262.56Z" fill="#455A64"/>
<path d="M386 294.73C394.14 290.56 404.18 268.73 406.11 264.46C407.34 261.72 408.47 258.94 409.58 256.14C411.8 250.55 413.84 244.89 415.79 239.2C415.79 239.1 415.96 239.2 415.94 239.25C414.867 243.637 413.583 247.97 412.09 252.25C413.072 250.636 413.96 248.966 414.75 247.25C414.761 247.237 414.776 247.228 414.793 247.225C414.809 247.221 414.826 247.222 414.842 247.229C414.857 247.236 414.871 247.247 414.879 247.262C414.888 247.276 414.892 247.293 414.89 247.31C414.092 249.339 413.055 251.266 411.8 253.05C410.27 257.35 408.55 261.58 406.62 265.71C406.07 266.9 394.46 293.62 385.37 296.1C382.2 296.96 371.37 296.18 369.09 295.66C368.99 295.66 368.96 295.51 369.09 295.51C372.16 295.51 383.05 296.22 386 294.73Z" fill="#263238"/>
<path d="M343.11 285.47C343.51 284.35 343.93 283.23 344.34 282.12C345.17 279.88 350.18 266.6 352.34 262.45C352.4 262.34 352.57 262.45 352.54 262.54C351.32 267.09 346.01 280.19 345.12 282.36C344.67 283.46 344.21 284.57 343.74 285.67C343.27 286.77 342.67 287.82 342.21 288.93C342.16 289.04 341.99 288.99 342.03 288.88C342.44 287.76 342.71 286.59 343.11 285.47Z" fill="#263238"/>
<path d="M347.54 257C349.54 257.08 367.41 261.24 371.36 262.13C372.3 262.442 373.29 262.577 374.28 262.53C375.244 262.245 376.074 261.624 376.62 260.78C377.9 259.31 391.89 240.78 392.9 239.91C393.29 239.57 393.59 239.5 393.23 240.09C392.61 241.09 379.01 259.34 377.77 260.78C376.53 262.22 375.54 263.52 373.62 263.44C372.77 263.44 348.62 257.99 347.46 257.5C347.21 257.38 347.23 257 347.54 257Z" fill="#263238"/>
<path d="M393.42 226C397.06 225.92 405.16 220 406.34 214.44C406.42 214.06 404.89 210.78 403.23 206.71C402.23 204.23 401.17 201.45 400.39 198.84C400.23 198.31 385.23 207.71 385.23 207.71C387.139 210.692 388.677 213.896 389.81 217.25C389.912 217.61 389.982 217.978 390.02 218.35C390.017 218.41 390.017 218.47 390.02 218.53C390.32 220.71 389.54 226.12 393.42 226Z" fill="#F7A9A0"/>
<path d="M390 218.39C389.996 218.45 389.996 218.51 390 218.57C390.576 218.476 391.145 218.339 391.7 218.16C401.26 215.07 400.19 202.26 399.76 199.06C396.98 200.35 385.18 207.75 385.18 207.75C387.091 210.731 388.629 213.935 389.76 217.29C389.876 217.648 389.957 218.016 390 218.39V218.39Z" fill="#263238"/>
<path d="M397.35 177.68C400.68 183.06 402.08 200.77 398.91 205.68C394.33 212.74 384.6 215.89 378.03 209.87C371.67 204.03 370.26 180.87 374.03 176.26C379.51 169.36 392.42 169.74 397.35 177.68Z" fill="#F7A9A0"/>
<path d="M383.55 192.17C383.55 192.17 383.64 192.22 383.65 192.27C383.71 193.46 383.98 194.82 385.09 195.13C385.09 195.13 385.09 195.2 385.09 195.19C383.76 195.12 383.41 193.31 383.55 192.17Z" fill="#263238"/>
<path d="M384.51 190.83C386.41 190.53 386.88 194.36 385.12 194.65C383.36 194.94 382.91 191.09 384.51 190.83Z" fill="#263238"/>
<path d="M376.69 193.21C376.69 193.16 376.61 193.27 376.61 193.32C376.8 194.51 376.81 195.89 375.78 196.42C375.78 196.42 375.78 196.5 375.78 196.48C377.09 196.14 377.06 194.3 376.69 193.21Z" fill="#263238"/>
<path d="M375.48 192.1C373.55 192.19 373.87 196.04 375.66 195.95C377.45 195.86 377.1 192 375.48 192.1Z" fill="#263238"/>
<path d="M385.8 188.89C385.277 188.805 384.76 188.692 384.25 188.55C383.688 188.511 383.155 188.281 382.74 187.9C382.628 187.757 382.567 187.581 382.567 187.4C382.567 187.219 382.628 187.043 382.74 186.9C383.001 186.65 383.324 186.475 383.677 186.394C384.029 186.313 384.396 186.329 384.74 186.44C385.471 186.555 386.133 186.936 386.6 187.51C386.7 187.646 386.759 187.809 386.768 187.978C386.777 188.147 386.737 188.315 386.652 188.462C386.567 188.609 386.441 188.727 386.29 188.803C386.138 188.879 385.968 188.909 385.8 188.89V188.89Z" fill="#263238"/>
<path d="M373.76 190.35C374.26 190.182 374.75 189.988 375.23 189.77C375.782 189.636 376.274 189.323 376.63 188.88C376.718 188.718 376.749 188.532 376.718 188.351C376.687 188.169 376.596 188.003 376.46 187.88C376.167 187.684 375.829 187.569 375.477 187.546C375.126 187.524 374.775 187.594 374.46 187.75C373.756 187.979 373.161 188.459 372.79 189.1C372.717 189.248 372.687 189.414 372.704 189.578C372.721 189.742 372.783 189.898 372.884 190.028C372.985 190.159 373.121 190.258 373.276 190.315C373.431 190.372 373.599 190.384 373.76 190.35V190.35Z" fill="#263238"/>
<path d="M386 203.06C385.75 203.37 385.51 203.79 385.09 203.88C384.645 203.923 384.196 203.876 383.77 203.74C383.77 203.74 383.7 203.74 383.77 203.8C383.968 204.014 384.221 204.171 384.501 204.252C384.781 204.333 385.078 204.336 385.36 204.26C385.593 204.167 385.793 204.008 385.936 203.801C386.078 203.595 386.156 203.351 386.16 203.1C386.13 203 386 203 386 203.06Z" fill="#263238"/>
<path d="M380.87 201.5C381.454 202.094 382.18 202.528 382.98 202.76C383.418 202.867 383.878 202.84 384.3 202.68C385.22 202.31 385.13 201.44 384.87 200.68C384.722 200.299 384.531 199.937 384.3 199.6C383.39 200.585 382.188 201.251 380.87 201.5V201.5Z" fill="#263238"/>
<path d="M383 202.76C383.438 202.867 383.898 202.84 384.32 202.68C385.24 202.31 385.15 201.44 384.89 200.68C384.385 200.759 383.922 201.008 383.578 201.387C383.234 201.765 383.03 202.25 383 202.76V202.76Z" fill="#FF9BBC"/>
<path d="M398.94 192.73C395.81 193.06 394.85 185.44 394.85 185.44C394.85 185.44 389.98 185.38 386.58 179.28C386.58 179.28 381.14 184.11 375.89 184.03C367.65 183.92 366.13 173.49 368.77 170.88C372.51 167.17 380.77 170.28 380.77 170.28C380.77 170.28 391.67 165.19 396.36 172.35C397.858 172.206 399.355 172.635 400.549 173.552C401.743 174.469 402.544 175.805 402.79 177.29C404.1 182.87 401.28 192.48 398.94 192.73Z" fill="#263238"/>
<path d="M396.11 186.14C393.746 186.13 391.453 185.335 389.59 183.88C388.591 183.084 387.798 182.06 387.276 180.894C386.754 179.729 386.519 178.455 386.59 177.18C386.59 177.05 386.39 177.04 386.38 177.18C386.235 178.52 386.386 179.876 386.823 181.152C387.26 182.427 387.973 183.591 388.91 184.56C389.848 185.467 391.007 186.113 392.272 186.432C393.537 186.752 394.864 186.734 396.12 186.38C396.152 186.379 396.182 186.365 396.203 186.341C396.225 186.318 396.236 186.287 396.235 186.255C396.234 186.223 396.22 186.193 396.196 186.172C396.173 186.15 396.142 186.139 396.11 186.14Z" fill="#263238"/>
<path d="M402.67 173.93C400.76 172.19 398.3 172.28 395.94 172.76C395.81 172.76 395.86 173.01 395.99 172.97C397.164 172.728 398.381 172.807 399.514 173.197C400.647 173.588 401.654 174.276 402.43 175.19C403.94 176.87 404.07 179.28 403.93 181.43C403.681 185.589 401.9 189.508 398.93 192.43C398.919 192.439 398.913 192.452 398.912 192.466C398.911 192.481 398.916 192.494 398.925 192.505C398.934 192.516 398.947 192.522 398.961 192.523C398.976 192.524 398.989 192.519 399 192.51C400.713 190.986 402.097 189.129 403.066 187.052C404.036 184.975 404.572 182.721 404.64 180.43C404.7 178.19 404.42 175.53 402.67 173.93Z" fill="#263238"/>
<path d="M374.21 199.37C372.21 199.46 370.51 197.1 370.37 194.1C370.23 191.1 371.74 188.6 373.72 188.51C375.7 188.42 377.42 190.79 377.56 193.78C377.7 196.77 376.19 199.29 374.21 199.37ZM373.76 189.24C372.18 189.31 370.99 191.48 371.1 194.07C371.21 196.66 372.6 198.72 374.18 198.65C375.76 198.58 376.94 196.41 376.83 193.82C376.72 191.23 375.34 189.17 373.76 189.24Z" fill="#455A64"/>
<path d="M386 198.83C384.913 198.953 383.814 198.747 382.846 198.237C381.877 197.727 381.085 196.938 380.572 195.971C380.059 195.005 379.848 193.907 379.968 192.819C380.087 191.732 380.531 190.705 381.242 189.873C381.953 189.042 382.898 188.443 383.954 188.156C385.01 187.869 386.128 187.906 387.162 188.263C388.196 188.619 389.099 189.279 389.754 190.156C390.408 191.033 390.783 192.087 390.83 193.18C390.938 194.569 390.489 195.945 389.584 197.004C388.678 198.064 387.389 198.72 386 198.83V198.83ZM385.55 188.7C384.601 188.667 383.664 188.92 382.862 189.428C382.06 189.935 381.429 190.673 381.052 191.544C380.675 192.416 380.57 193.381 380.75 194.313C380.93 195.245 381.387 196.101 382.062 196.769C382.736 197.438 383.596 197.887 384.53 198.059C385.464 198.231 386.427 198.117 387.296 197.733C388.164 197.349 388.896 196.711 389.396 195.904C389.896 195.097 390.142 194.158 390.1 193.21C390.089 192.007 389.603 190.857 388.746 190.011C387.89 189.166 386.733 188.695 385.53 188.7H385.55Z" fill="#455A64"/>
<path d="M380.93 193.14C378.39 192.3 377.3 193.24 377.29 193.25L376.85 192.7C376.91 192.7 378.19 191.48 381.12 192.45L380.93 193.14Z" fill="#455A64"/>
<path d="M390.38 192.72L390.22 192.01C390.69 191.9 399.61 189.83 400.81 189.71C402.01 189.59 405.11 191.11 405.46 191.28L405.13 191.93C404.27 191.49 401.87 190.39 400.94 190.43H400.89C400 190.53 394.33 191.81 390.38 192.72Z" fill="#455A64"/>
<path d="M396.78 192.78C396.78 192.78 399.28 186.35 402.1 187.11C404.92 187.87 403.98 196.54 401.32 198.34C400.995 198.595 400.623 198.782 400.224 198.888C399.825 198.995 399.409 199.02 399 198.961C398.592 198.902 398.199 198.761 397.847 198.546C397.494 198.331 397.189 198.046 396.95 197.71L396.78 192.78Z" fill="#F7A9A0"/>
<path d="M401.77 189.59C401.82 189.59 401.84 189.59 401.77 189.66C399.93 190.99 399.31 193.16 399.03 195.31C399.106 195.08 399.23 194.87 399.393 194.692C399.557 194.514 399.756 194.373 399.979 194.278C400.201 194.184 400.441 194.138 400.683 194.143C400.924 194.149 401.162 194.205 401.38 194.31C401.44 194.31 401.38 194.43 401.38 194.43C400.991 194.404 400.604 194.498 400.271 194.7C399.938 194.903 399.676 195.203 399.52 195.56C399.267 196.158 399.08 196.782 398.96 197.42C398.96 197.63 398.55 197.61 398.57 197.42V197.36C397.88 194.69 399 190.53 401.77 189.59Z" fill="#263238"/>
<path d="M388.74 218.22H388.8C388.35 221.64 387.53 229.58 392.75 229.44C394.85 229.38 396.86 228.15 398.54 226.93C400.268 225.657 401.854 224.202 403.27 222.59C404.931 220.825 406.446 218.929 407.8 216.92C407.85 216.83 407.97 216.92 407.92 217.02C406.54 219.02 405.36 221.15 403.79 223.02C402.31 224.846 400.592 226.464 398.68 227.83C396.88 229.08 394.75 230.29 392.53 230.24C391.553 230.211 390.617 229.84 389.886 229.191C389.155 228.542 388.675 227.657 388.53 226.69C387.987 223.885 388.059 220.995 388.74 218.22V218.22Z" fill="#263238"/>
<path d="M54.01 259.71H276.9V174.54H54.01V259.71Z" fill="#455A64"/>
<path d="M259.12 281V259.71H241.09L259.12 281Z" fill="#455A64"/>
<path d="M263.73 189.27H67.17V190.89H263.73V189.27Z" fill="white"/>
<path d="M221.49 198.01H67.17V199.63H221.49V198.01Z" fill="white"/>
<path d="M247 215.49H67.17V217.11H247V215.49Z" fill="white"/>
<path d="M263.73 224.23H67.17V225.85H263.73V224.23Z" fill="white"/>
<path d="M263.73 232.96H67.17V234.58H263.73V232.96Z" fill="white"/>
<path d="M207.36 241.7H67.17V243.32H207.36V241.7Z" fill="white"/>
<path d="M78.76 82.75C75.13 93 69 104.78 70.47 116C71.6 124.79 77.32 132.21 83.85 137.84C98.23 150.21 121.18 158.21 137.85 145.25C144.49 140.07 149.43 126.6 143.25 119.25C140.07 115.48 135.55 113.46 131.45 110.9C128.858 109.404 126.637 107.344 124.95 104.872C123.264 102.399 122.157 99.579 121.71 96.62C119.62 84.31 123.05 76.8 125.54 64.92C125.865 63.7606 125.944 62.546 125.772 61.3542C125.6 60.1624 125.18 59.0199 124.54 58C123.209 55.5529 121.235 53.5162 118.83 52.11C116.911 50.4765 114.615 49.3459 112.15 48.82C106.86 47.82 100.51 51.04 95.66 52.82C90.81 54.6 87.96 57.14 86.12 62.08C83.55 68.9 81.21 75.84 78.76 82.75Z" fill="#263238"/>
<path d="M76 87.28C79.94 78.06 84 68.93 88.1 59.77C88.1 59.72 88.22 59.77 88.19 59.77C85.08 67.41 82.07 75.08 78.85 82.67C75.63 90.26 71.94 97.55 69.46 105.25C63.85 122.55 79.57 135 94.6 138.65C95.28 138.82 94.94 139.89 94.26 139.65C81.16 136.05 67 126.92 67.35 111.65C67.55 103.29 72.77 94.81 76 87.28Z" fill="#263238"/>
<path d="M124.93 63.75C124.932 63.7279 124.94 63.7067 124.952 63.6878C124.963 63.6689 124.979 63.6529 124.998 63.6408C125.016 63.6288 125.037 63.621 125.059 63.6181C125.081 63.6152 125.104 63.6172 125.125 63.624C125.146 63.6308 125.165 63.6422 125.182 63.6574C125.198 63.6726 125.21 63.6912 125.219 63.7119C125.227 63.7325 125.23 63.7548 125.229 63.7769C125.227 63.7991 125.221 63.8206 125.21 63.84C122.75 73.52 118.98 84.59 121.9 94.55C123.342 99.4588 126.235 103.816 130.2 107.05C133.34 109.6 137.11 110.88 140.64 112.75C154.43 120.07 148.57 139.92 135.58 144.42C135.31 144.51 135.13 144.04 135.4 143.94C144.71 140.23 150.48 130.11 146.78 120.28C143.78 112.4 133.78 111.57 128.12 106.09C116.41 94.73 120.43 77.53 124.93 63.75Z" fill="#263238"/>
<path d="M167.91 77.64L153.73 108.21C153.596 108.37 153.507 108.562 153.473 108.768C153.438 108.974 153.459 109.185 153.534 109.38C153.608 109.574 153.733 109.746 153.896 109.876C154.059 110.006 154.254 110.09 154.46 110.12L171 113.26C171.514 113.32 172.034 113.233 172.5 113.008C172.966 112.783 173.358 112.43 173.63 111.99L187.81 81.42C187.945 81.2613 188.034 81.0692 188.069 80.864C188.104 80.6588 188.083 80.4479 188.008 80.2536C187.934 80.0593 187.808 79.8887 187.645 79.7596C187.481 79.6305 187.286 79.5477 187.08 79.52L170.51 76.37C170.001 76.3156 169.487 76.4059 169.027 76.6306C168.567 76.8552 168.18 77.2051 167.91 77.64V77.64Z" fill="#A6A6A6"/>
<path d="M169.88 78L155.7 108.57C155.566 108.73 155.477 108.922 155.443 109.128C155.408 109.334 155.429 109.545 155.503 109.74C155.578 109.934 155.703 110.106 155.866 110.236C156.029 110.366 156.224 110.45 156.43 110.48L173 113.62C173.513 113.674 174.031 113.584 174.496 113.36C174.961 113.135 175.353 112.786 175.63 112.35L189.8 81.78C189.934 81.6202 190.023 81.4276 190.057 81.2219C190.092 81.0163 190.071 80.8052 189.996 80.6104C189.922 80.4156 189.797 80.2443 189.634 80.1141C189.471 79.9839 189.276 79.8997 189.07 79.87L172.5 76.73C171.988 76.6704 171.469 76.7583 171.005 76.9833C170.541 77.2082 170.151 77.5609 169.88 78V78Z" fill="#DBDBDB"/>
<path d="M174.14 80.33C174.08 80.6063 173.94 80.8588 173.737 81.0555C173.534 81.2522 173.278 81.3844 173 81.4353C172.721 81.4861 172.435 81.4535 172.175 81.3414C171.916 81.2293 171.695 81.0428 171.542 80.8055C171.388 80.5681 171.308 80.2906 171.312 80.008C171.316 79.7253 171.404 79.4502 171.564 79.2174C171.725 78.9846 171.951 78.8046 172.213 78.7C172.476 78.5955 172.764 78.5711 173.04 78.63C173.225 78.6679 173.4 78.7423 173.555 78.8486C173.711 78.955 173.844 79.0913 173.946 79.2495C174.049 79.4077 174.118 79.5847 174.152 79.7703C174.185 79.9558 174.181 80.146 174.14 80.33V80.33Z" fill="#263238"/>
<path d="M105.29 116.12C110.68 137.91 126.54 167.97 135.21 169.82C139.34 170.69 146.53 173.15 152.9 169.48C166.81 161.48 180.65 143.6 184.9 132.65C186.42 128.75 168.51 116.09 164.96 118.8C156.63 125.15 145.73 138.69 144.54 138.36C140.16 137.14 125.64 119.19 115.54 106.57C103.28 91.25 103.14 107.44 105.29 116.12Z" fill="#F9B3A8"/>
<path d="M189.57 111.87C189.12 103.26 187.68 101.12 191.17 93.65C193.45 88.74 191.3 85.18 186.83 88.59C179.51 94.16 177.75 105.4 178.26 109.47L189.57 111.87Z" fill="#F9B3A8"/>
<path d="M183.27 136C183.27 136 189.2 125.3 189.64 116.08C189.93 109.7 189.03 95.75 173.08 85.31C169.3 82.83 162.15 81.98 166.86 88.31C170.21 92.78 173.68 94.6 175.15 97.55C175.15 97.55 165.93 97.55 163.6 101.44C161.563 104.829 159.769 108.358 158.23 112C158.834 112.437 159.465 112.834 160.12 113.19C160.12 113.19 158.05 116.89 159.87 123.1L183.27 136Z" fill="#F9B3A8"/>
<path d="M189 109.91C186.92 107.29 182.41 101.81 177.17 98.61C171.34 95.05 159.17 89.77 156.58 94.09C154.68 97.27 159.16 99.69 159.16 99.69C159.16 99.69 153.66 98.57 152.58 101.81C151.58 104.81 155.16 106.43 155.16 106.43C155.16 106.43 151.71 106.32 151.31 109.35C150.83 112.99 158.14 112.62 160.83 116.73C161.39 117.66 189 109.91 189 109.91Z" fill="#F9B3A8"/>
<path d="M174.38 105.39C170.036 101.968 164.75 99.9549 159.23 99.62C159.09 99.62 159.01 99.72 159.14 99.75C164.422 101.024 169.529 102.935 174.35 105.44C174.35 105.44 174.41 105.41 174.38 105.39Z" fill="#263238"/>
<path d="M170.62 111.17C168.39 109.52 161.42 106.23 155.15 106.31C155.01 106.31 154.94 106.42 155.07 106.45C160.407 107.446 165.614 109.047 170.59 111.22C170.59 111.22 170.65 111.19 170.62 111.17Z" fill="#263238"/>
<path d="M113.05 144L131.83 123.42C131.83 123.42 119.03 107.28 110.62 100.42C105.91 96.55 102.85 100.16 103.19 105.65C104.37 124.88 113.05 144 113.05 144Z" fill="#2D2D2D"/>
<path d="M107.81 102.59C107.812 102.808 107.749 103.022 107.629 103.205C107.509 103.387 107.337 103.53 107.136 103.614C106.934 103.699 106.712 103.721 106.498 103.679C106.284 103.637 106.087 103.532 105.932 103.378C105.778 103.223 105.673 103.026 105.631 102.812C105.589 102.598 105.611 102.376 105.696 102.174C105.78 101.973 105.923 101.801 106.105 101.681C106.288 101.561 106.502 101.498 106.72 101.5C107.009 101.5 107.286 101.615 107.491 101.819C107.695 102.024 107.81 102.301 107.81 102.59V102.59ZM106.72 118.36C106.502 118.358 106.288 118.421 106.106 118.541C105.924 118.66 105.781 118.831 105.697 119.032C105.612 119.233 105.589 119.454 105.63 119.668C105.671 119.882 105.775 120.079 105.929 120.234C106.082 120.389 106.278 120.495 106.492 120.538C106.705 120.581 106.927 120.56 107.129 120.477C107.33 120.394 107.503 120.253 107.624 120.072C107.745 119.891 107.81 119.678 107.81 119.46C107.81 119.17 107.696 118.892 107.491 118.686C107.287 118.48 107.01 118.363 106.72 118.36V118.36ZM119.1 118.36C118.882 118.358 118.668 118.421 118.486 118.541C118.304 118.66 118.161 118.831 118.077 119.032C117.992 119.233 117.969 119.454 118.01 119.668C118.051 119.882 118.155 120.079 118.309 120.234C118.462 120.389 118.658 120.495 118.872 120.538C119.085 120.581 119.307 120.56 119.509 120.477C119.71 120.394 119.883 120.253 120.004 120.072C120.125 119.891 120.19 119.678 120.19 119.46C120.19 119.17 120.076 118.892 119.871 118.686C119.667 118.48 119.39 118.363 119.1 118.36V118.36ZM112.91 110C112.692 109.998 112.478 110.061 112.295 110.181C112.113 110.301 111.97 110.473 111.886 110.674C111.801 110.876 111.779 111.098 111.821 111.312C111.863 111.526 111.968 111.723 112.122 111.878C112.277 112.032 112.474 112.137 112.688 112.179C112.902 112.221 113.124 112.199 113.326 112.114C113.527 112.03 113.699 111.887 113.819 111.705C113.939 111.522 114.002 111.308 114 111.09C114 110.801 113.885 110.524 113.681 110.319C113.476 110.115 113.199 110 112.91 110V110ZM119.1 135.25C118.882 135.248 118.668 135.311 118.485 135.431C118.303 135.551 118.16 135.723 118.076 135.924C117.991 136.126 117.969 136.348 118.011 136.562C118.053 136.776 118.158 136.973 118.312 137.128C118.467 137.282 118.664 137.387 118.878 137.429C119.092 137.471 119.314 137.449 119.516 137.364C119.717 137.28 119.889 137.137 120.009 136.955C120.129 136.772 120.192 136.558 120.19 136.34C120.193 136.195 120.166 136.051 120.113 135.917C120.059 135.782 119.979 135.66 119.878 135.556C119.776 135.453 119.655 135.371 119.522 135.315C119.388 135.259 119.245 135.23 119.1 135.23V135.25ZM112.91 126.86C112.692 126.858 112.478 126.921 112.296 127.041C112.114 127.16 111.971 127.331 111.887 127.532C111.802 127.733 111.779 127.954 111.82 128.168C111.861 128.382 111.965 128.579 112.119 128.734C112.272 128.889 112.468 128.995 112.682 129.038C112.895 129.081 113.117 129.06 113.319 128.977C113.52 128.894 113.693 128.753 113.814 128.572C113.935 128.391 114 128.178 114 127.96C114.003 127.815 113.976 127.67 113.923 127.535C113.87 127.4 113.79 127.277 113.689 127.173C113.587 127.069 113.466 126.986 113.333 126.928C113.199 126.871 113.055 126.841 112.91 126.84V126.86ZM125.29 126.86C125.072 126.858 124.858 126.921 124.676 127.041C124.494 127.16 124.351 127.331 124.267 127.532C124.182 127.733 124.159 127.954 124.2 128.168C124.241 128.382 124.345 128.579 124.499 128.734C124.652 128.889 124.848 128.995 125.062 129.038C125.275 129.081 125.497 129.06 125.699 128.977C125.9 128.894 126.073 128.753 126.194 128.572C126.315 128.391 126.38 128.178 126.38 127.96C126.383 127.815 126.357 127.67 126.303 127.535C126.25 127.4 126.17 127.277 126.069 127.173C125.967 127.069 125.846 126.986 125.713 126.928C125.579 126.871 125.435 126.841 125.29 126.84V126.86ZM112.91 143.73L113.05 144.05L113.28 143.8C113.165 143.744 113.038 143.713 112.91 143.71V143.73Z" fill="white"/>
<path d="M127.93 121.21C124.78 124.14 116.46 132.32 111.75 138.35C111.75 138.35 111.85 138.51 111.88 138.48C116.56 134.06 125.23 124.58 128.12 121.4C128.17 121.34 128 121.16 127.93 121.21Z" fill="#263238"/>
<path opacity="0.1" d="M129.68 125.79L113.05 144C113.05 144 104.38 124.85 103.19 105.63C102.95 101.85 104.33 98.97 106.74 98.79L129.68 125.79Z" fill="black"/>
<path d="M127.56 174.56H58.07C58.07 174.56 66.26 126.96 88.65 101.47C94.65 94.59 103.77 95.76 108.95 100.41C110.765 102.185 112.437 104.101 113.95 106.14C118.66 112.14 126.35 126.71 127.06 130.63C128.25 137.13 122.51 144.14 122.51 144.14L127.56 174.56Z" fill="#2D2D2D"/>
<path d="M111.74 141.49C108.606 141.77 105.498 142.281 102.44 143.02C100.93 143.41 99.44 143.86 97.95 144.35C97.21 144.6 96.47 144.82 95.72 145.03C94.9451 145.279 94.1423 145.43 93.33 145.48C93.3209 145.476 93.3109 145.474 93.301 145.475C93.291 145.476 93.2815 145.479 93.2731 145.485C93.2648 145.49 93.258 145.498 93.2532 145.506C93.2485 145.515 93.246 145.525 93.246 145.535C93.246 145.545 93.2485 145.555 93.2532 145.564C93.258 145.572 93.2648 145.58 93.2731 145.585C93.2815 145.591 93.291 145.594 93.301 145.595C93.3109 145.596 93.3209 145.594 93.33 145.59C94.099 145.645 94.871 145.645 95.64 145.59C96.3817 145.503 97.1167 145.366 97.84 145.18C99.38 144.8 100.9 144.35 102.43 143.95C105.53 143.16 108.63 142.36 111.78 141.79C111.93 141.72 111.89 141.48 111.74 141.49Z" fill="#263238"/>
<path d="M119.49 144.27C116.909 143.999 114.315 143.872 111.72 143.89C110.42 143.89 109.13 144 107.84 144.12C107.22 144.18 106.6 144.26 105.99 144.33C105.38 144.4 104.65 144.6 103.99 144.67C103.92 144.67 103.92 144.79 103.99 144.79C104.63 144.73 105.28 144.79 105.93 144.79L107.87 144.74L111.75 144.65C114.34 144.56 116.92 144.5 119.51 144.5C119.63 144.48 119.62 144.28 119.49 144.27Z" fill="#263238"/>
<path d="M83.11 105.23C64 125.24 40.27 167.07 45 175.39C50.24 184.65 77.77 156.16 76.91 154.8C76.17 153.64 85.69 128.46 92.6 110.04C99.51 91.62 87.83 100.28 83.11 105.23Z" fill="#F9B3A8"/>
<path d="M59.71 129.22L87.13 134.16C87.13 134.16 93.97 114.73 95.33 103.94C96.09 97.94 92.54 97.65 88.07 100.86C72.42 112.11 59.71 129.22 59.71 129.22Z" fill="#2D2D2D"/>
<path d="M87 129.67C79.3983 127.657 71.676 126.13 63.88 125.1C63.88 125.1 63.79 125.27 63.88 125.28C70.11 126.88 82.75 129.18 86.98 129.92C87 129.94 87 129.69 87 129.67Z" fill="#263238"/>
<path d="M83.79 133.56C84.92 133.66 86.04 133.8 87.16 133.95L86.93 134.09C87.74 131.09 88.65 128.15 89.63 125.21C90.61 122.27 91.63 119.36 92.82 116.49C92.1 119.49 91.24 122.49 90.32 125.43C89.4 128.37 88.41 131.32 87.32 134.22L87.25 134.4H87.08C86 134.11 84.88 133.85 83.79 133.56Z" fill="#263238"/>
<path d="M91 122.4C91.2471 121.79 91.5624 121.209 91.94 120.67C92.3069 120.121 92.7219 119.606 93.18 119.13C93.1107 119.456 92.9998 119.772 92.85 120.07C92.7101 120.369 92.5462 120.657 92.36 120.93C91.9851 121.487 91.5263 121.983 91 122.4V122.4Z" fill="#263238"/>
<path d="M45 175.39C49.48 181.57 61.4 182.56 91.18 187.88C95.31 188.61 108.32 160.93 103.96 159.88C98.47 158.61 76.88 154.88 75.27 154.78C61.62 154.17 41.93 171.19 45 175.39Z" fill="#F9B3A8"/>
<path d="M98 158.66C98 158.66 110.61 160.35 117 163.29C125.5 167.22 131.22 174.12 133.44 177.15C138.08 183.49 144.92 202.02 139.93 204.92C135.41 207.54 129.38 188.25 129.38 188.25C129.38 188.25 138.77 206.9 132.75 209.06C126.73 211.22 121 188.43 121 188.43C121 188.43 130.22 207.82 123.66 209.06C118.66 210 112.35 189.65 112.35 189.65C112.35 189.65 120.16 206.37 115.1 207.55C109.51 208.87 102.47 190.45 102.47 190.45C89.1 191.31 82.39 186.24 78.04 182.08C76.91 181.07 98 158.66 98 158.66Z" fill="#F9B3A8"/>
<path d="M126.46 181.59C127.64 183.74 128.86 185.91 129.84 188.16C130.82 190.41 131.74 192.7 132.52 195.03C133.591 198.054 134.309 201.191 134.66 204.38C133.66 198.77 130.21 190.66 129.22 188.38C128.23 186.1 127.36 183.84 126.37 181.6L126.46 181.59Z" fill="#263238"/>
<path d="M118.28 185C119.67 187.81 121.15 190.55 122.42 193.43C123.69 196.31 124.63 199.11 125.69 202.05C125.77 202.28 125.62 202.25 125.53 202.05C124.35 199.16 123.04 196.57 121.83 193.69C120.62 190.81 119.52 187.88 118.21 185.06C118.19 185 118.25 185 118.28 185Z" fill="#263238"/>
<path d="M110.72 186.68C112.959 190.941 114.752 195.421 116.07 200.05C116.15 200.28 115.96 200.22 115.87 199.99C114.18 195.51 112.87 191.99 110.58 186.76C110.54 186.68 110.67 186.59 110.72 186.68Z" fill="#263238"/>
<path d="M62.09 158.14C64.09 156.89 69.67 153.95 75.19 154.76C75.2033 154.76 75.216 154.765 75.2254 154.775C75.2347 154.784 75.24 154.797 75.24 154.81C75.24 154.823 75.2347 154.836 75.2254 154.845C75.216 154.855 75.2033 154.86 75.19 154.86C70.65 154.86 64.19 157.17 62.14 158.22C62.08 158.25 62 158.18 62.09 158.14Z" fill="#263238"/>
<path d="M97 98.52C97.18 99.69 102 107.62 107.3 107.81C109.02 107.87 109.78 98.51 109.78 98.51L109.99 97.84L112.99 88.34L102.24 80.08L100.63 79C100.63 79 99.98 81.65 99.21 85C99.21 85.15 99.14 85.31 99.1 85.47C99.06 85.63 99 85.77 99 86C98.88 86.49 98.76 87 98.64 87.5C98.52 88 98.47 88.26 98.4 88.66C98.33 89.06 98.24 89.46 98.15 89.87C97.5768 92.7249 97.1926 95.6145 97 98.52V98.52Z" fill="#F9B3A8"/>
<path d="M99.21 84.94C99.964 87.7447 101.32 90.3515 103.183 92.5793C105.047 94.807 107.373 96.6022 110 97.84L113 88.34L102.25 80.08L100.63 79C100.63 79 100 81.63 99.21 84.94Z" fill="#263238"/>
<path d="M128.6 76.18C127.51 93.61 117 94.93 113.19 94.69C109.77 94.47 98.19 93.3 97.46 75.85C96.73 58.4 105.2 53.39 113 53.47C120.8 53.55 129.69 58.74 128.6 76.18Z" fill="#F9B3A8"/>
<path d="M125.39 71.87C124.98 71.77 124.63 71.62 124.24 71.49C123.821 71.4082 123.439 71.1945 123.15 70.88C123.078 70.7621 123.047 70.6238 123.062 70.4865C123.076 70.3492 123.135 70.2204 123.23 70.12C123.449 69.9547 123.708 69.8508 123.981 69.8191C124.253 69.7875 124.529 69.8292 124.78 69.94C125.334 70.0921 125.81 70.4496 126.11 70.94C126.158 71.0502 126.176 71.1714 126.161 71.2908C126.146 71.4102 126.1 71.5235 126.026 71.6186C125.952 71.7138 125.854 71.7873 125.742 71.8315C125.631 71.8758 125.509 71.8891 125.39 71.87V71.87Z" fill="#263238"/>
<path d="M114.2 70.68C114.61 70.68 114.99 70.61 115.4 70.56C115.831 70.5767 116.255 70.4539 116.61 70.21C116.702 70.1103 116.76 69.9835 116.775 69.8483C116.789 69.7131 116.759 69.5769 116.69 69.46C116.516 69.2469 116.287 69.085 116.028 68.9916C115.769 68.8983 115.49 68.877 115.22 68.93C114.659 68.9465 114.124 69.1711 113.72 69.56C113.634 69.6551 113.577 69.7729 113.555 69.8995C113.534 70.0261 113.55 70.1561 113.6 70.2741C113.651 70.3921 113.734 70.4931 113.841 70.565C113.947 70.637 114.072 70.6769 114.2 70.68V70.68Z" fill="#263238"/>
<path d="M116 75.32C116 75.32 115.91 75.37 115.9 75.41C115.83 76.6 115.55 77.95 114.45 78.25V78.32C115.79 78.25 116.14 76.46 116 75.32Z" fill="#263238"/>
<path d="M115.07 74C113.18 73.68 112.68 77.49 114.43 77.78C116.18 78.07 116.65 74.25 115.07 74Z" fill="#263238"/>
<path d="M114.29 74.09C113.93 74.26 113.56 74.6 113.15 74.59C112.74 74.58 112.38 74.13 112.15 73.71C112.15 73.71 112.09 73.71 112.08 73.71C111.976 74.0524 112.005 74.4217 112.163 74.7429C112.321 75.0642 112.595 75.3134 112.93 75.44C113.63 75.63 114.22 75.05 114.5 74.34C114.53 74.24 114.44 74 114.29 74.09Z" fill="#263238"/>
<path d="M122.88 75.7C122.88 75.7 122.97 75.76 122.96 75.81C122.76 76.99 122.73 78.36 123.74 78.9C123.74 78.9 123.74 78.98 123.74 78.97C122.44 78.6 122.5 76.78 122.88 75.7Z" fill="#263238"/>
<path d="M124.1 74.61C126.02 74.73 125.64 78.55 123.87 78.44C122.1 78.33 122.5 74.51 124.1 74.61Z" fill="#263238"/>
<path d="M124.88 74.94C125.16 75.17 125.42 75.57 125.78 75.63C126.14 75.69 126.54 75.31 126.85 74.94C126.85 74.94 126.91 74.94 126.9 74.94C126.85 75.67 126.54 76.41 125.82 76.48C125.1 76.55 124.76 75.87 124.66 75.13C124.64 75 124.76 74.85 124.88 74.94Z" fill="#263238"/>
<path d="M120.27 80.72C120.27 80.72 120.27 82.52 120.21 83.35C119.406 83.4465 118.591 83.3247 117.85 82.9975C117.109 82.6702 116.47 82.1495 116 81.49C115.94 81.4 116.07 81.32 116.14 81.39C117.121 82.2442 118.353 82.7566 119.65 82.85C119.73 82.63 119.48 79.77 119.65 79.78C120.294 79.9098 120.916 80.1286 121.5 80.43C121.5 76.67 120.97 72.94 121.06 69.21C121.06 69.1808 121.072 69.1528 121.092 69.1322C121.113 69.1116 121.141 69.1 121.17 69.1C121.199 69.1 121.227 69.1116 121.248 69.1322C121.268 69.1528 121.28 69.1808 121.28 69.21C122.016 73.1898 122.351 77.2334 122.28 81.28C122.24 81.73 120.59 80.9 120.27 80.72Z" fill="#263238"/>
<path d="M119.08 83.13C118.548 83.6545 117.891 84.0334 117.17 84.23C116.774 84.325 116.359 84.2971 115.98 84.15C115.16 83.81 115.25 83.02 115.5 82.37C115.632 82.0169 115.807 81.6811 116.02 81.37C116.822 82.2729 117.896 82.8906 119.08 83.13V83.13Z" fill="#263238"/>
<path d="M117.17 84.23C116.774 84.325 116.359 84.2971 115.98 84.15C115.16 83.81 115.25 83.02 115.5 82.37C115.948 82.4442 116.358 82.6689 116.661 83.007C116.965 83.345 117.144 83.7764 117.17 84.23V84.23Z" fill="#FF9BBC"/>
<path d="M98.16 75.12C101.31 76.12 103.53 68.89 103.53 68.89C103.53 68.89 117.74 69.15 121.02 58.17C121.895 63.0578 124.621 67.4201 128.63 70.35C128.63 70.35 130.46 57.97 121.17 53.75C121.17 53.75 109.92 47.07 101.31 55.38C92.7 63.69 96 74.43 98.16 75.12Z" fill="#263238"/>
<path d="M121.22 57.35C121.054 59.1099 120.515 60.8143 119.64 62.35C118.776 63.9054 117.602 65.2668 116.19 66.35C115.838 66.6237 115.471 66.8774 115.09 67.11L114.52 67.47L113.93 67.76C113.52 67.95 113.12 68.15 112.71 68.32L111.45 68.72C111.23 68.78 111.03 68.86 110.81 68.91L110.16 69.03L108.86 69.27C107.99 69.34 107.11 69.37 106.24 69.39C107.1 69.19 107.96 69.09 108.8 68.88L110.04 68.55L110.66 68.38C110.86 68.31 111.06 68.22 111.26 68.14C111.65 67.98 112.05 67.82 112.45 67.68C112.85 67.54 113.2 67.29 113.58 67.1L114.14 66.81L114.67 66.45C115.015 66.2272 115.349 65.9869 115.67 65.73C117.027 64.695 118.194 63.433 119.12 62C119.593 61.2878 120.001 60.5348 120.34 59.75C120.703 58.9771 120.997 58.1741 121.22 57.35V57.35Z" fill="#263238"/>
<path d="M100.28 76.79C100.28 76.79 97.28 70.79 94.67 71.79C92.06 72.79 93.67 81.01 96.4 82.51C96.7375 82.7193 97.1131 82.8595 97.5052 82.9225C97.8972 82.9855 98.2979 82.97 98.6839 82.877C99.07 82.784 99.4337 82.6153 99.754 82.3806C100.074 82.1459 100.345 81.85 100.55 81.51L100.28 76.79Z" fill="#F9B3A8"/>
<path d="M95.21 74.16V74.23C97.1 75.35 97.88 77.38 98.33 79.43C98.245 79.2114 98.1135 79.0138 97.9447 78.851C97.7758 78.6881 97.5736 78.5639 97.3521 78.4869C97.1305 78.4099 96.8949 78.3819 96.6614 78.4049C96.428 78.4278 96.2023 78.5013 96 78.62C95.94 78.62 96 78.74 96 78.74C96.3714 78.6805 96.7521 78.7369 97.0903 78.9016C97.4285 79.0662 97.7077 79.331 97.89 79.66C98.182 80.2158 98.4198 80.7985 98.6 81.4C98.66 81.6 99 81.55 98.96 81.33C99.38 78.72 97.92 74.83 95.21 74.16Z" fill="#263238"/>
<path d="M98.19 82C98.1586 82.137 98.0872 82.2616 97.9849 82.358C97.8826 82.4544 97.754 82.5183 97.6153 82.5415C97.4767 82.5647 97.3343 82.5463 97.2061 82.4885C97.078 82.4307 96.9699 82.3362 96.8955 82.2169C96.8211 82.0976 96.7838 81.959 96.7883 81.8185C96.7929 81.678 96.839 81.542 96.9208 81.4277C97.0027 81.3134 97.1167 81.2261 97.2483 81.1766C97.3798 81.1272 97.5232 81.1179 97.66 81.15C97.8428 81.1928 98.0011 81.3063 98.1005 81.4656C98.1998 81.6249 98.232 81.817 98.19 82V82Z" fill="white"/>
<path d="M96.75 80.49C96.7208 80.6226 96.6402 80.7382 96.5258 80.8113C96.4114 80.8845 96.2726 80.9092 96.14 80.88C96.0074 80.8508 95.8918 80.7702 95.8187 80.6558C95.7455 80.5414 95.7208 80.4026 95.75 80.27C95.781 80.1363 95.8636 80.0204 95.9797 79.9473C96.0958 79.8743 96.2361 79.8501 96.37 79.88C96.501 79.9109 96.6145 79.9924 96.6857 80.1067C96.7569 80.221 96.78 80.3587 96.75 80.49V80.49Z" fill="white"/>
<path d="M94.25 73.75L93.12 73.39C93.0805 73.3787 93.0437 73.3595 93.012 73.3334C92.9802 73.3073 92.9541 73.275 92.9354 73.2384C92.9166 73.2018 92.9056 73.1618 92.9029 73.1208C92.9003 73.0798 92.9061 73.0387 92.92 73V72.88C92.9452 72.8018 93.0005 72.7368 93.0736 72.6993C93.1467 72.6618 93.2318 72.6548 93.31 72.68L94.43 73.04C94.4695 73.0513 94.5063 73.0705 94.5381 73.0966C94.5698 73.1227 94.5959 73.155 94.6146 73.1916C94.6334 73.2282 94.6444 73.2682 94.6471 73.3092C94.6497 73.3502 94.6439 73.3913 94.63 73.43V73.55C94.6186 73.5884 94.5997 73.6241 94.5743 73.655C94.5489 73.6859 94.5176 73.7114 94.4821 73.7301C94.4467 73.7487 94.408 73.7601 94.3681 73.7635C94.3282 73.7669 94.2881 73.7623 94.25 73.75V73.75Z" fill="#2D2D2D"/>
<path d="M94.11 74.0717L92.9355 73.958C92.7651 73.9415 92.6136 74.0663 92.5971 74.2367L92.5846 74.3661C92.5681 74.5365 92.6928 74.688 92.8632 74.7045L94.0377 74.8183C94.2082 74.8348 94.3597 74.71 94.3762 74.5396L94.3887 74.4102C94.4052 74.2398 94.2804 74.0882 94.11 74.0717Z" fill="#2D2D2D"/>
<path d="M87.72 101.12C87.72 101.12 102.01 109.69 108.2 108.94C109.654 108.843 111.035 108.263 112.122 107.292C113.209 106.321 113.94 105.014 114.2 103.58C112.27 101.309 109.854 99.5014 107.132 98.2898C104.409 97.0782 101.449 96.4938 98.47 96.58C93.06 96.81 87.72 101.12 87.72 101.12Z" fill="#F9B3A8"/>
</svg>
